<svg xmlns="http://www.w3.org/2000/svg" viewBox="289.6 316.6 762.387 369.035" width="762.387" height="369.035"><defs><marker orient="auto" overflow="visible" markerUnits="strokeWidth" id="a" stroke-linejoin="miter" stroke-miterlimit="10" viewBox="-6 -4 7 8" markerWidth="7" markerHeight="8" color="#666a6b"><path d="M -4.32 0 L 0 2.52 L 0 -2.52 Z" fill="none" stroke="currentColor"/></marker><marker orient="auto" overflow="visible" markerUnits="strokeWidth" id="b" stroke-linejoin="miter" stroke-miterlimit="10" viewBox="-1 -4 10 8" markerWidth="10" markerHeight="8" color="#000"><path d="M 8 0 L 0 -3 L 0 3 Z" fill="currentColor" stroke="currentColor"/></marker><marker orient="auto" overflow="visible" markerUnits="strokeWidth" id="c" stroke-linejoin="miter" stroke-miterlimit="10" viewBox="-6 -3 7 6" markerWidth="7" markerHeight="6" color="#666a6b"><path d="M -4.32 0 L 0 0 M 0 1.62 L -4.32 0 L 0 -1.62" fill="none" stroke="currentColor"/></marker></defs><g fill="none"><text transform="translate(303.2 554.842)" fill="#000">
          <tspan font-family="Display,Helvetica,sans-serif" font-size="18" x="10.855" y="17">SolarNet</tspan>
        </text><text transform="translate(658.2 421.878)" fill="#235e00">
          <tspan font-family="Text,Helvetica,sans-serif" font-size="12" x="1.771" y="11">process </tspan>
          <tspan font-family="Text,Helvetica,sans-serif" font-size="12" x="1.815" y="25">1 datum</tspan>
        </text><path d="M364.958 486.342 358.946 486.342C358.321 486.342 357.743 486.732 357.743 487.414L357.743 493.556C357.743 494.601 359.363 494.601 359.363 493.556L359.363 487.962 364.958 487.962C366.002 487.962 366.002 486.342 364.958 486.342L364.958 486.342ZM364.958 506.591 359.364 506.591 359.364 500.997C359.364 499.951 357.743 499.951 357.743 500.997L357.743 507.009C357.743 507.633 358.134 508.211 358.816 508.211L364.958 508.211C366.002 508.211 366.002 506.591 364.958 506.591L364.958 506.591Z" fill="#000"/><path d="M 386.3026 496.2311 C 387.34813 496.23114 387.34813 494.61114 386.3026 494.6111 L 382.72363 494.6111 L 382.72363 491.90665 L 386.3026 491.90665 C 387.34813 491.90664 387.34813 490.2859 386.3026 490.28585 L 382.72363 490.28585 L 382.72363 484.9909 L 382.71463 484.8649 C 382.6104 483.81864 381.7719 483.1429 380.72635 483.1429 L 375.73517 483.1429 L 375.73517 479.5841 C 375.73513 478.53863 374.1144 478.53863 374.11437 479.5841 L 374.11437 483.1429 L 371.41135 483.1429 L 371.41135 479.5841 C 371.4114 478.53863 369.79063 478.53863 369.79063 479.5841 L 369.79063 483.1429 L 367.1229 483.1429 L 367.1229 479.5841 C 367.1229 478.53863 365.50213 478.53863 365.50217 479.5841 L 365.50217 483.1429 L 362.97237 483.1429 L 362.97237 479.5841 C 362.97238 478.53863 361.35163 478.53863 361.35165 479.5841 L 361.35165 483.1429 L 356.33786 483.1429 C 355.29088 483.1429 354.36313 483.88914 354.3631 484.9916 L 354.3631 490.28585 L 350.78414 490.28585 C 349.73863 490.2859 349.73863 491.90664 350.78414 491.90665 L 354.3631 491.90665 L 354.3631 494.6111 L 350.78414 494.6111 C 349.73863 494.61114 349.73863 496.23114 350.78414 496.2311 L 354.3631 496.2311 L 354.3631 498.90037 L 350.78414 498.90037 C 349.73863 498.9004 349.73863 500.5204 350.78414 500.52037 L 354.3631 500.52037 L 354.3631 503.0509 L 350.78414 503.0509 C 349.73863 503.0509 349.73863 504.67164 350.78414 504.67167 L 354.3631 504.67167 L 354.3631 509.1641 C 354.36313 509.49414 354.35413 509.80614 354.4254 510.13316 C 354.62638 511.0654 355.54138 511.5034 356.41065 511.5034 L 361.35165 511.5034 L 361.35165 515.2369 C 361.35163 516.2824 362.97238 516.2824 362.97237 515.2369 L 362.97237 511.5034 L 365.50217 511.5034 L 365.50217 515.2369 C 365.50213 516.2824 367.1229 516.2824 367.1229 515.2369 L 367.1229 511.5034 L 369.79063 511.5034 L 369.79063 515.2369 C 369.79063 516.2824 371.4114 516.2824 371.41135 515.2369 L 371.41135 511.5034 L 374.11437 511.5034 L 374.11437 515.2369 C 374.1144 516.2824 375.73513 516.2824 375.73517 515.2369 L 375.73517 511.5034 L 380.78863 511.5034 C 381.82963 511.5034 382.72288 510.7219 382.7229 509.64637 L 382.7229 504.6709 L 386.3019 504.6709 C 387.3474 504.6709 387.3474 503.05014 386.3019 503.05016 L 382.7229 503.05016 L 382.7229 500.51965 L 386.3019 500.51965 C 387.3474 500.51964 387.3474 498.89964 386.3019 498.89965 L 382.7229 498.89965 L 382.7229 496.2304 L 386.3026 496.2304 L 386.3026 496.2311 Z M 381.10363 484.9909 L 381.10363 509.62765 C 381.10363 509.66964 381.07513 509.8114 381.09917 509.7034 L 381.08865 509.7581 L 381.04286 509.81967 C 381.11113 509.7079 380.93263 509.90064 381.0391 509.8234 C 380.94763 509.8894 380.9934 509.8849 380.8764 509.8849 L 356.22986 509.8849 C 356.11288 509.8849 356.18338 509.88564 356.0821 509.8549 C 356.20963 509.8939 355.98013 509.76264 356.0799 509.8474 L 356.03337 509.81067 L 356.0004 509.7484 C 356.06338 509.8534 355.98463 509.6509 355.98535 509.7221 L 355.9831 509.65616 L 355.9831 484.9931 C 355.98313 484.86714 355.98238 484.93164 356.0439 484.8296 C 355.97563 484.9429 356.15413 484.74864 356.04763 484.8259 L 356.0986 484.7861 L 356.1639 484.76965 L 356.2149 484.7651 L 380.8569 484.7651 C 380.88538 484.76514 380.9469 484.7764 380.9574 484.7779 C 381.01963 484.79213 380.9979 484.7944 381.0661 484.86267 C 380.9739 484.7689 381.1239 484.98714 381.0736 484.8649 L 381.10363 484.9271 L 381.10363 484.9909 L 381.10363 484.9909 Z" fill="#000"/><path d="M377.681 500.997 377.681 506.591 372.086 506.591C371.041 506.591 371.041 508.211 372.086 508.211L378.098 508.211C378.723 508.211 379.301 507.82 379.301 507.138L379.301 500.997C379.301 499.951 377.681 499.951 377.681 500.997L377.681 500.997ZM378.228 486.342 372.086 486.342C371.041 486.342 371.041 487.962 372.086 487.962L377.681 487.962 377.681 493.556C377.681 494.601 379.301 494.601 379.301 493.556L379.301 487.544C379.301 486.919 378.91 486.342 378.228 486.342L378.228 486.342ZM325.558 452.942 319.546 452.942C318.921 452.942 318.343 453.332 318.343 454.014L318.343 460.156C318.343 461.201 319.963 461.201 319.963 460.156L319.963 454.562 325.558 454.562C326.602 454.562 326.602 452.942 325.558 452.942L325.558 452.942ZM325.558 473.191 319.964 473.191 319.964 467.597C319.964 466.551 318.343 466.551 318.343 467.597L318.343 473.609C318.343 474.233 318.734 474.811 319.416 474.811L325.558 474.811C326.602 474.811 326.602 473.191 325.558 473.191L325.558 473.191Z" fill="#000"/><path d="M 346.9026 462.8311 C 347.94813 462.83113 347.94813 461.21114 346.9026 461.2111 L 343.32363 461.2111 L 343.32363 458.50665 L 346.9026 458.50665 C 347.94813 458.50664 347.94813 456.8859 346.9026 456.88585 L 343.32363 456.88585 L 343.32363 451.5909 L 343.31463 451.4649 C 343.21038 450.41864 342.3719 449.7429 341.32635 449.7429 L 336.33517 449.7429 L 336.33517 446.1841 C 336.33513 445.13863 334.71438 445.13863 334.71437 446.1841 L 334.71437 449.7429 L 332.01135 449.7429 L 332.01135 446.1841 C 332.01138 445.13863 330.39063 445.13863 330.39063 446.1841 L 330.39063 449.7429 L 327.7229 449.7429 L 327.7229 446.1841 C 327.72288 445.13863 326.10213 445.13863 326.10217 446.1841 L 326.10217 449.7429 L 323.57237 449.7429 L 323.57237 446.1841 C 323.57238 445.13863 321.95163 445.13863 321.95165 446.1841 L 321.95165 449.7429 L 316.93786 449.7429 C 315.89088 449.7429 314.96313 450.48914 314.9631 451.5916 L 314.9631 456.88585 L 311.38414 456.88585 C 310.33863 456.8859 310.33863 458.50664 311.38414 458.50665 L 314.9631 458.50665 L 314.9631 461.2111 L 311.38414 461.2111 C 310.33863 461.21114 310.33863 462.83113 311.38414 462.8311 L 314.9631 462.8311 L 314.9631 465.50037 L 311.38414 465.50037 C 310.33863 465.5004 310.33863 467.1204 311.38414 467.12037 L 314.9631 467.12037 L 314.9631 469.6509 L 311.38414 469.6509 C 310.33863 469.6509 310.33863 471.27164 311.38414 471.27167 L 314.9631 471.27167 L 314.9631 475.7641 C 314.96313 476.09414 314.95413 476.40614 315.0254 476.73316 C 315.22638 477.6654 316.14138 478.1034 317.01065 478.1034 L 321.95165 478.1034 L 321.95165 481.8369 C 321.95163 482.8824 323.57238 482.8824 323.57237 481.8369 L 323.57237 478.1034 L 326.10217 478.1034 L 326.10217 481.8369 C 326.10213 482.8824 327.72288 482.8824 327.7229 481.8369 L 327.7229 478.1034 L 330.39063 478.1034 L 330.39063 481.8369 C 330.39063 482.8824 332.01138 482.8824 332.01135 481.8369 L 332.01135 478.1034 L 334.71437 478.1034 L 334.71437 481.8369 C 334.71438 482.8824 336.33513 482.8824 336.33517 481.8369 L 336.33517 478.1034 L 341.38863 478.1034 C 342.42963 478.1034 343.32288 477.3219 343.3229 476.24637 L 343.3229 471.2709 L 346.9019 471.2709 C 347.94738 471.2709 347.94738 469.65014 346.9019 469.65016 L 343.3229 469.65016 L 343.3229 467.11965 L 346.9019 467.11965 C 347.94738 467.11964 347.94738 465.49964 346.9019 465.49965 L 343.3229 465.49965 L 343.3229 462.8304 L 346.9026 462.8304 L 346.9026 462.8311 Z M 341.70363 451.5909 L 341.70363 476.22765 C 341.70363 476.26964 341.67513 476.4114 341.69917 476.3034 L 341.68865 476.3581 L 341.64286 476.41967 C 341.71113 476.3079 341.53263 476.50064 341.6391 476.4234 C 341.54763 476.4894 341.59338 476.4849 341.4764 476.4849 L 316.82986 476.4849 C 316.71288 476.4849 316.78338 476.48564 316.6821 476.4549 C 316.80963 476.4939 316.58013 476.36264 316.6799 476.4474 L 316.63337 476.41067 L 316.6004 476.3484 C 316.66338 476.4534 316.58463 476.2509 316.58535 476.3221 L 316.5831 476.25616 L 316.5831 451.5931 C 316.58313 451.46713 316.58238 451.53164 316.6439 451.4296 C 316.57563 451.5429 316.75413 451.34864 316.64763 451.4259 L 316.6986 451.3861 L 316.7639 451.36965 L 316.8149 451.3651 L 341.4569 451.3651 C 341.48538 451.36514 341.54688 451.3764 341.5574 451.3779 C 341.61963 451.39213 341.59788 451.3944 341.6661 451.46267 C 341.57388 451.3689 341.72388 451.58714 341.6736 451.4649 L 341.70363 451.5271 L 341.70363 451.5909 L 341.70363 451.5909 Z" fill="#000"/><path d="M338.281 467.597 338.281 473.191 332.686 473.191C331.641 473.191 331.641 474.811 332.686 474.811L338.698 474.811C339.323 474.811 339.901 474.42 339.901 473.738L339.901 467.597C339.901 466.551 338.281 466.551 338.281 467.597L338.281 467.597ZM338.828 452.942 332.686 452.942C331.641 452.942 331.641 454.562 332.686 454.562L338.281 454.562 338.281 460.156C338.281 461.201 339.901 461.201 339.901 460.156L339.901 454.144C339.901 453.519 339.51 452.942 338.828 452.942L338.828 452.942ZM391.158 369.742 385.146 369.742C384.521 369.742 383.943 370.132 383.943 370.814L383.943 376.956C383.943 378.001 385.563 378.001 385.563 376.956L385.563 371.362 391.158 371.362C392.202 371.362 392.202 369.742 391.158 369.742L391.158 369.742ZM391.158 389.991 385.564 389.991 385.564 384.397C385.564 383.351 383.943 383.351 383.943 384.397L383.943 390.409C383.943 391.033 384.334 391.611 385.016 391.611L391.158 391.611C392.202 391.611 392.202 389.991 391.158 389.991L391.158 389.991Z" fill="#000"/><path d="M 412.5026 379.6311 C 413.54813 379.63113 413.54813 378.01113 412.5026 378.0111 L 408.92363 378.0111 L 408.92363 375.30664 L 412.5026 375.30664 C 413.54813 375.30663 413.54813 373.6859 412.5026 373.68584 L 408.92363 373.68584 L 408.92363 368.3909 L 408.91463 368.2649 C 408.8104 367.21864 407.9719 366.5429 406.92635 366.54287 L 401.93517 366.54287 L 401.93517 362.98412 C 401.93513 361.93863 400.3144 361.93863 400.31437 362.98412 L 400.31437 366.54287 L 397.61135 366.54287 L 397.61135 362.98412 C 397.6114 361.93863 395.99063 361.93863 395.99063 362.98412 L 395.99063 366.54287 L 393.3229 366.54287 L 393.3229 362.98412 C 393.3229 361.93863 391.70213 361.93863 391.70217 362.98412 L 391.70217 366.54287 L 389.17237 366.54287 L 389.17237 362.98412 C 389.1724 361.93863 387.55163 361.93863 387.55165 362.98412 L 387.55165 366.54287 L 382.53786 366.54287 C 381.4909 366.5429 380.56313 367.28913 380.5631 368.3916 L 380.5631 373.68584 L 376.98414 373.68584 C 375.93863 373.6859 375.93863 375.30663 376.98414 375.30664 L 380.5631 375.30664 L 380.5631 378.0111 L 376.98414 378.0111 C 375.93863 378.01113 375.93863 379.63113 376.98414 379.6311 L 380.5631 379.6311 L 380.5631 382.30036 L 376.98414 382.30036 C 375.93863 382.3004 375.93863 383.9204 376.98414 383.92036 L 380.5631 383.92036 L 380.5631 386.45087 L 376.98414 386.45087 C 375.93863 386.4509 375.93863 388.07163 376.98414 388.07166 L 380.5631 388.07166 L 380.5631 392.5641 C 380.56313 392.89413 380.55413 393.20613 380.6254 393.53315 C 380.8264 394.4654 381.7414 394.9034 382.61065 394.9034 L 387.55165 394.9034 L 387.55165 398.63687 C 387.55163 399.6824 389.1724 399.6824 389.17237 398.63687 L 389.17237 394.9034 L 391.70217 394.9034 L 391.70217 398.63687 C 391.70213 399.6824 393.3229 399.6824 393.3229 398.63687 L 393.3229 394.9034 L 395.99063 394.9034 L 395.99063 398.63687 C 395.99063 399.6824 397.6114 399.6824 397.61135 398.63687 L 397.61135 394.9034 L 400.31437 394.9034 L 400.31437 398.63687 C 400.3144 399.6824 401.93513 399.6824 401.93517 398.63687 L 401.93517 394.9034 L 406.98863 394.9034 C 408.02963 394.9034 408.9229 394.1219 408.9229 393.04636 L 408.9229 388.07087 L 412.5019 388.07087 C 413.5474 388.0709 413.5474 386.45013 412.5019 386.45015 L 408.9229 386.45015 L 408.9229 383.91964 L 412.5019 383.91964 C 413.5474 383.91963 413.5474 382.29963 412.5019 382.29964 L 408.9229 382.29964 L 408.9229 379.6304 L 412.5026 379.6304 L 412.5026 379.6311 Z M 407.30363 368.3909 L 407.30363 393.02764 C 407.30363 393.06963 407.27513 393.2114 407.29917 393.1034 L 407.28865 393.1581 L 407.24286 393.21966 C 407.31113 393.1079 407.13263 393.30063 407.2391 393.2234 C 407.14763 393.2894 407.1934 393.2849 407.0764 393.2849 L 382.42986 393.2849 C 382.3129 393.2849 382.3834 393.28563 382.2821 393.25487 C 382.40963 393.2939 382.18013 393.16263 382.2799 393.2474 L 382.23337 393.21066 L 382.2004 393.1484 C 382.2634 393.2534 382.18463 393.0509 382.18535 393.1221 L 382.1831 393.05615 L 382.1831 368.39312 C 382.18313 368.26713 382.1824 368.33163 382.2439 368.2296 C 382.17563 368.3429 382.35413 368.14864 382.24763 368.22587 L 382.2986 368.18612 L 382.3639 368.16964 L 382.4149 368.1651 L 407.0569 368.1651 C 407.0854 368.16513 407.1469 368.1764 407.1574 368.17792 C 407.21963 368.19213 407.1979 368.1944 407.2661 368.26266 C 407.1739 368.1689 407.3239 368.38713 407.2736 368.2649 L 407.30363 368.3271 L 407.30363 368.3909 L 407.30363 368.3909 Z" fill="#000"/><path d="M403.881 384.397 403.881 389.991 398.286 389.991C397.241 389.991 397.241 391.611 398.286 391.611L404.298 391.611C404.923 391.611 405.501 391.22 405.501 390.538L405.501 384.397C405.501 383.351 403.881 383.351 403.881 384.397L403.881 384.397ZM404.428 369.742 398.286 369.742C397.241 369.742 397.241 371.362 398.286 371.362L403.881 371.362 403.881 376.956C403.881 378.001 405.501 378.001 405.501 376.956L405.501 370.944C405.501 370.319 405.11 369.742 404.428 369.742L404.428 369.742ZM380.358 428.042 374.346 428.042C373.721 428.042 373.143 428.432 373.143 429.114L373.143 435.256C373.143 436.301 374.763 436.301 374.763 435.256L374.763 429.662 380.358 429.662C381.402 429.662 381.402 428.042 380.358 428.042L380.358 428.042ZM380.358 448.291 374.764 448.291 374.764 442.697C374.764 441.651 373.143 441.651 373.143 442.697L373.143 448.709C373.143 449.333 373.534 449.911 374.216 449.911L380.358 449.911C381.402 449.911 381.402 448.291 380.358 448.291L380.358 448.291Z" fill="#000"/><path d="M 401.7026 437.9311 C 402.74813 437.93113 402.74813 436.31114 401.7026 436.3111 L 398.12363 436.3111 L 398.12363 433.60664 L 401.7026 433.60664 C 402.74813 433.60664 402.74813 431.9859 401.7026 431.98584 L 398.12363 431.98584 L 398.12363 426.6909 L 398.11463 426.5649 C 398.0104 425.51864 397.1719 424.8429 396.12635 424.8429 L 391.13517 424.8429 L 391.13517 421.2841 C 391.13513 420.23863 389.5144 420.23863 389.51437 421.2841 L 389.51437 424.8429 L 386.81135 424.8429 L 386.81135 421.2841 C 386.8114 420.23863 385.19063 420.23863 385.19063 421.2841 L 385.19063 424.8429 L 382.5229 424.8429 L 382.5229 421.2841 C 382.5229 420.23863 380.90213 420.23863 380.90217 421.2841 L 380.90217 424.8429 L 378.37237 424.8429 L 378.37237 421.2841 C 378.3724 420.23863 376.75163 420.23863 376.75165 421.2841 L 376.75165 424.8429 L 371.73786 424.8429 C 370.69088 424.8429 369.76313 425.58914 369.7631 426.6916 L 369.7631 431.98584 L 366.18414 431.98584 C 365.13863 431.9859 365.13863 433.60664 366.18414 433.60664 L 369.7631 433.60664 L 369.7631 436.3111 L 366.18414 436.3111 C 365.13863 436.31114 365.13863 437.93113 366.18414 437.9311 L 369.7631 437.9311 L 369.7631 440.60036 L 366.18414 440.60036 C 365.13863 440.6004 365.13863 442.2204 366.18414 442.22036 L 369.7631 442.22036 L 369.7631 444.7509 L 366.18414 444.7509 C 365.13863 444.7509 365.13863 446.37163 366.18414 446.37166 L 369.7631 446.37166 L 369.7631 450.8641 C 369.76313 451.19413 369.75413 451.50614 369.8254 451.83315 C 370.0264 452.7654 370.94138 453.2034 371.81065 453.2034 L 376.75165 453.2034 L 376.75165 456.9369 C 376.75163 457.9824 378.3724 457.9824 378.37237 456.9369 L 378.37237 453.2034 L 380.90217 453.2034 L 380.90217 456.9369 C 380.90213 457.9824 382.5229 457.9824 382.5229 456.9369 L 382.5229 453.2034 L 385.19063 453.2034 L 385.19063 456.9369 C 385.19063 457.9824 386.8114 457.9824 386.81135 456.9369 L 386.81135 453.2034 L 389.51437 453.2034 L 389.51437 456.9369 C 389.5144 457.9824 391.13513 457.9824 391.13517 456.9369 L 391.13517 453.2034 L 396.18863 453.2034 C 397.22963 453.2034 398.1229 452.4219 398.1229 451.34636 L 398.1229 446.3709 L 401.7019 446.3709 C 402.7474 446.3709 402.7474 444.75013 401.7019 444.75015 L 398.1229 444.75015 L 398.1229 442.21964 L 401.7019 442.21964 C 402.7474 442.21964 402.7474 440.59964 401.7019 440.59964 L 398.1229 440.59964 L 398.1229 437.9304 L 401.7026 437.9304 L 401.7026 437.9311 Z M 396.50363 426.6909 L 396.50363 451.32764 C 396.50363 451.36963 396.47513 451.5114 396.49917 451.4034 L 396.48865 451.4581 L 396.44286 451.51966 C 396.51113 451.4079 396.33263 451.60063 396.4391 451.5234 C 396.34763 451.5894 396.3934 451.5849 396.2764 451.5849 L 371.62986 451.5849 C 371.5129 451.5849 371.58338 451.58563 371.4821 451.5549 C 371.60963 451.5939 371.38013 451.46263 371.4799 451.5474 L 371.43337 451.51066 L 371.4004 451.4484 C 371.4634 451.5534 371.38463 451.3509 371.38535 451.4221 L 371.3831 451.35615 L 371.3831 426.6931 C 371.38313 426.56713 371.3824 426.63163 371.4439 426.5296 C 371.37563 426.6429 371.55413 426.44864 371.44763 426.5259 L 371.4986 426.4861 L 371.5639 426.46964 L 371.6149 426.4651 L 396.2569 426.4651 C 396.2854 426.46513 396.3469 426.4764 396.3574 426.4779 C 396.41963 426.49213 396.3979 426.4944 396.4661 426.56266 C 396.3739 426.4689 396.5239 426.68713 396.4736 426.5649 L 396.50363 426.6271 L 396.50363 426.6909 L 396.50363 426.6909 Z" fill="#000"/><path d="M393.081 442.697 393.081 448.291 387.486 448.291C386.441 448.291 386.441 449.911 387.486 449.911L393.498 449.911C394.123 449.911 394.701 449.52 394.701 448.838L394.701 442.697C394.701 441.651 393.081 441.651 393.081 442.697L393.081 442.697ZM393.628 428.042 387.486 428.042C386.441 428.042 386.441 429.662 387.486 429.662L393.081 429.662 393.081 435.256C393.081 436.301 394.701 436.301 394.701 435.256L394.701 429.244C394.701 428.619 394.31 428.042 393.628 428.042L393.628 428.042Z" fill="#000"/><path marker-start="url(#a)" stroke="#666a6b" stroke-linecap="square" stroke-linejoin="bevel" stroke-width="2" d="M436.1 419.235 413.287 395.6"/><path marker-start="url(#a)" stroke="#666a6b" stroke-linecap="square" stroke-linejoin="bevel" stroke-width="2" d="M430.184 431.895 365.4 409.25"/><path d="M339.008 397.571 332.996 397.571C332.371 397.571 331.793 397.961 331.793 398.643L331.793 404.785C331.793 405.83 333.413 405.83 333.413 404.785L333.413 399.191 339.008 399.191C340.052 399.191 340.052 397.571 339.008 397.571L339.008 397.571ZM339.008 417.82 333.414 417.82 333.414 412.226C333.414 411.18 331.793 411.18 331.793 412.226L331.793 418.238C331.793 418.862 332.184 419.44 332.866 419.44L339.008 419.44C340.052 419.44 340.052 417.82 339.008 417.82L339.008 417.82Z" fill="#000"/><path d="M 360.3526 407.4601 C 361.39813 407.46013 361.39813 405.84013 360.3526 405.8401 L 356.77363 405.8401 L 356.77363 403.13564 L 360.3526 403.13564 C 361.39813 403.13563 361.39813 401.5149 360.3526 401.51484 L 356.77363 401.51484 L 356.77363 396.2199 L 356.76463 396.0939 C 356.6604 395.04763 355.8219 394.3719 354.77635 394.37187 L 349.78517 394.37187 L 349.78517 390.8131 C 349.78513 389.76763 348.1644 389.76763 348.16437 390.8131 L 348.16437 394.37187 L 345.46135 394.37187 L 345.46135 390.8131 C 345.4614 389.76763 343.84063 389.76763 343.84063 390.8131 L 343.84063 394.37187 L 341.1729 394.37187 L 341.1729 390.8131 C 341.1729 389.76763 339.55213 389.76763 339.55217 390.8131 L 339.55217 394.37187 L 337.02237 394.37187 L 337.02237 390.8131 C 337.0224 389.76763 335.40163 389.76763 335.40165 390.8131 L 335.40165 394.37187 L 330.38786 394.37187 C 329.3409 394.3719 328.41313 395.11813 328.41312 396.2206 L 328.41312 401.51484 L 324.83414 401.51484 C 323.78863 401.5149 323.78863 403.13563 324.83414 403.13564 L 328.41312 403.13564 L 328.41312 405.8401 L 324.83414 405.8401 C 323.78863 405.84013 323.78863 407.46013 324.83414 407.4601 L 328.41312 407.4601 L 328.41312 410.12936 L 324.83414 410.12936 C 323.78863 410.1294 323.78863 411.7494 324.83414 411.74936 L 328.41312 411.74936 L 328.41312 414.27987 L 324.83414 414.27987 C 323.78863 414.2799 323.78863 415.90063 324.83414 415.90066 L 328.41312 415.90066 L 328.41312 420.3931 C 328.41313 420.72313 328.40413 421.03513 328.4754 421.36215 C 328.6764 422.2944 329.5914 422.7324 330.46065 422.7324 L 335.40165 422.7324 L 335.40165 426.46587 C 335.40163 427.5114 337.0224 427.5114 337.02237 426.46587 L 337.02237 422.7324 L 339.55217 422.7324 L 339.55217 426.46587 C 339.55213 427.5114 341.1729 427.5114 341.1729 426.46587 L 341.1729 422.7324 L 343.84063 422.7324 L 343.84063 426.46587 C 343.84063 427.5114 345.4614 427.5114 345.46135 426.46587 L 345.46135 422.7324 L 348.16437 422.7324 L 348.16437 426.46587 C 348.1644 427.5114 349.78513 427.5114 349.78517 426.46587 L 349.78517 422.7324 L 354.83863 422.7324 C 355.87963 422.7324 356.7729 421.9509 356.7729 420.87536 L 356.7729 415.89987 L 360.3519 415.89987 C 361.3974 415.8999 361.3974 414.27913 360.3519 414.27915 L 356.7729 414.27915 L 356.7729 411.74864 L 360.3519 411.74864 C 361.3974 411.74863 361.3974 410.12863 360.3519 410.12864 L 356.7729 410.12864 L 356.7729 407.4594 L 360.3526 407.4594 L 360.3526 407.4601 Z M 355.15363 396.2199 L 355.15363 420.85664 C 355.15363 420.89863 355.12513 421.0404 355.14917 420.9324 L 355.13865 420.9871 L 355.09286 421.04866 C 355.16113 420.9369 354.98263 421.12963 355.08912 421.0524 C 354.99763 421.1184 355.0434 421.1139 354.9264 421.1139 L 330.27986 421.1139 C 330.1629 421.1139 330.2334 421.11463 330.13212 421.08387 C 330.25963 421.1229 330.03013 420.99163 330.1299 421.0764 L 330.08337 421.03966 L 330.0504 420.9774 C 330.1134 421.0824 330.03463 420.8799 330.03535 420.9511 L 330.03312 420.88515 L 330.03312 396.2221 C 330.03313 396.09613 330.0324 396.16063 330.0939 396.0586 C 330.02563 396.1719 330.20413 395.97763 330.09763 396.05487 L 330.1486 396.0151 L 330.2139 395.99864 L 330.2649 395.9941 L 354.9069 395.9941 C 354.9354 395.99413 354.9969 396.0054 355.0074 396.0069 C 355.06963 396.02113 355.0479 396.0234 355.11612 396.09166 C 355.0239 395.9979 355.1739 396.21613 355.1236 396.0939 L 355.15363 396.1561 L 355.15363 396.2199 L 355.15363 396.2199 Z" fill="#000"/><path d="M351.731 412.226 351.731 417.82 346.136 417.82C345.091 417.82 345.091 419.44 346.136 419.44L352.148 419.44C352.773 419.44 353.351 419.049 353.351 418.367L353.351 412.226C353.351 411.18 351.731 411.18 351.731 412.226L351.731 412.226ZM352.278 397.571 346.136 397.571C345.091 397.571 345.091 399.191 346.136 399.191L351.731 399.191 351.731 404.785C351.731 405.83 353.351 405.83 353.351 404.785L353.351 398.773C353.351 398.148 352.96 397.571 352.278 397.571L352.278 397.571Z" fill="#000"/><path marker-start="url(#a)" stroke="#666a6b" stroke-linecap="square" stroke-linejoin="bevel" stroke-width="2" d="M432.697 445.295 406.75 445.4"/><path marker-start="url(#a)" stroke="#666a6b" stroke-linecap="square" stroke-linejoin="bevel" stroke-width="2" d="M418.182 458.988 359.087 465.75"/><path marker-start="url(#a)" stroke="#666a6b" stroke-linecap="square" stroke-linejoin="bevel" stroke-width="2" d="M430.025 467.436 387.087 480.25"/><text transform="translate(302.8 323.6)" fill="#000">
          <tspan font-family="Display,Helvetica,sans-serif" font-size="18" x="13.98" y="17">Datum sources</tspan>
        </text><text transform="translate(453.2 323.6)" fill="#000">
          <tspan font-family="Display,Helvetica,sans-serif" font-size="18" x="42.56" y="17">Datum Queue</tspan>
        </text><path stroke="#666" stroke-linecap="round" stroke-linejoin="round" d="M448.2 430.6H648.2V470.6H448.2zM488.2 430.6 488.2 470.6M528.2 430.6 528.2 470.6M568.2 430.6 568.2 470.6M608.2 430.6 608.2 470.6"/><path d="M504.787 453.031C505.074 453.031 505.322 452.931 505.531 452.731 505.731 452.523 505.831 452.275 505.831 451.988L505.831 450.631C505.831 449.936 506.044 449.344 506.47 448.857 506.896 448.37 507.413 448.127 508.022 448.127L508.022 448.962C507.674 448.962 507.378 449.123 507.135 449.445 506.891 449.775 506.77 450.17 506.77 450.631L506.77 451.988C506.77 452.292 506.683 452.571 506.509 452.823 506.335 453.066 506.109 453.24 505.831 453.345 506.109 453.449 506.335 453.622 506.509 453.866 506.683 454.118 506.77 454.397 506.77 454.701L506.77 456.057C506.77 456.518 506.891 456.914 507.135 457.245 507.378 457.566 507.674 457.727 508.022 457.727L508.022 458.562C507.413 458.562 506.896 458.318 506.47 457.831 506.044 457.344 505.831 456.753 505.831 456.057L505.831 454.701C505.831 454.414 505.731 454.166 505.531 453.957 505.322 453.757 505.074 453.657 504.787 453.657ZM512.613 453.031C512.326 453.031 512.078 452.931 511.87 452.731 511.67 452.523 511.57 452.275 511.57 451.988L511.57 450.631C511.57 449.936 511.357 449.344 510.931 448.857 510.505 448.37 509.987 448.127 509.378 448.127L509.378 448.962C509.726 448.962 510.022 449.123 510.265 449.445 510.509 449.775 510.631 450.17 510.631 450.631L510.631 451.988C510.631 452.275 510.726 452.544 510.918 452.796 511.1 453.04 511.348 453.218 511.661 453.331 511.348 453.444 511.1 453.627 510.918 453.879 510.726 454.131 510.631 454.405 510.631 454.701L510.631 456.057C510.631 456.518 510.509 456.914 510.265 457.245 510.022 457.566 509.726 457.727 509.378 457.727L509.378 458.562C509.987 458.562 510.505 458.318 510.931 457.831 511.357 457.344 511.57 456.753 511.57 456.057L511.57 454.701C511.57 454.414 511.67 454.166 511.87 453.957 512.078 453.757 512.326 453.657 512.613 453.657ZM512.825 442.225 512.825 444.1 514.7 444.1ZM501.2 441.1 501.2 462.1 516.2 462.1 516.2 445.6 511.325 445.6 511.325 441.1ZM499.7 439.6 500.623 439.6 512.45 439.6 517.7 444.85 517.7 463.6 499.7 463.6 499.7 440.523ZM463.287 453.031C463.574 453.031 463.822 452.931 464.031 452.731 464.231 452.523 464.331 452.275 464.331 451.988L464.331 450.631C464.331 449.936 464.544 449.344 464.97 448.857 465.396 448.37 465.913 448.127 466.522 448.127L466.522 448.962C466.174 448.962 465.878 449.123 465.635 449.445 465.391 449.775 465.27 450.17 465.27 450.631L465.27 451.988C465.27 452.292 465.183 452.571 465.009 452.823 464.835 453.066 464.609 453.24 464.331 453.345 464.609 453.449 464.835 453.622 465.009 453.866 465.183 454.118 465.27 454.397 465.27 454.701L465.27 456.057C465.27 456.518 465.391 456.914 465.635 457.245 465.878 457.566 466.174 457.727 466.522 457.727L466.522 458.562C465.913 458.562 465.396 458.318 464.97 457.831 464.544 457.344 464.331 456.753 464.331 456.057L464.331 454.701C464.331 454.414 464.231 454.166 464.031 453.957 463.822 453.757 463.574 453.657 463.287 453.657ZM471.113 453.031C470.826 453.031 470.578 452.931 470.37 452.731 470.17 452.523 470.07 452.275 470.07 451.988L470.07 450.631C470.07 449.936 469.857 449.344 469.431 448.857 469.005 448.37 468.487 448.127 467.878 448.127L467.878 448.962C468.226 448.962 468.522 449.123 468.765 449.445 469.009 449.775 469.131 450.17 469.131 450.631L469.131 451.988C469.131 452.275 469.226 452.544 469.418 452.796 469.6 453.04 469.848 453.218 470.161 453.331 469.848 453.444 469.6 453.627 469.418 453.879 469.226 454.131 469.131 454.405 469.131 454.701L469.131 456.057C469.131 456.518 469.009 456.914 468.765 457.245 468.522 457.566 468.226 457.727 467.878 457.727L467.878 458.562C468.487 458.562 469.005 458.318 469.431 457.831 469.857 457.344 470.07 456.753 470.07 456.057L470.07 454.701C470.07 454.414 470.17 454.166 470.37 453.957 470.578 453.757 470.826 453.657 471.113 453.657ZM471.325 442.225 471.325 444.1 473.2 444.1ZM459.7 441.1 459.7 462.1 474.7 462.1 474.7 445.6 469.825 445.6 469.825 441.1ZM458.2 439.6 459.123 439.6 470.95 439.6 476.2 444.85 476.2 463.6 458.2 463.6 458.2 440.523ZM544.787 453.031C545.074 453.031 545.322 452.931 545.531 452.731 545.731 452.523 545.831 452.275 545.831 451.988L545.831 450.631C545.831 449.936 546.044 449.344 546.47 448.857 546.896 448.37 547.413 448.127 548.022 448.127L548.022 448.962C547.674 448.962 547.378 449.123 547.135 449.445 546.891 449.775 546.77 450.17 546.77 450.631L546.77 451.988C546.77 452.292 546.683 452.571 546.509 452.823 546.335 453.066 546.109 453.24 545.831 453.345 546.109 453.449 546.335 453.622 546.509 453.866 546.683 454.118 546.77 454.397 546.77 454.701L546.77 456.057C546.77 456.518 546.891 456.914 547.135 457.245 547.378 457.566 547.674 457.727 548.022 457.727L548.022 458.562C547.413 458.562 546.896 458.318 546.47 457.831 546.044 457.344 545.831 456.753 545.831 456.057L545.831 454.701C545.831 454.414 545.731 454.166 545.531 453.957 545.322 453.757 545.074 453.657 544.787 453.657ZM552.613 453.031C552.326 453.031 552.078 452.931 551.87 452.731 551.67 452.523 551.57 452.275 551.57 451.988L551.57 450.631C551.57 449.936 551.357 449.344 550.931 448.857 550.505 448.37 549.987 448.127 549.378 448.127L549.378 448.962C549.726 448.962 550.022 449.123 550.265 449.445 550.509 449.775 550.631 450.17 550.631 450.631L550.631 451.988C550.631 452.275 550.726 452.544 550.918 452.796 551.1 453.04 551.348 453.218 551.661 453.331 551.348 453.444 551.1 453.627 550.918 453.879 550.726 454.131 550.631 454.405 550.631 454.701L550.631 456.057C550.631 456.518 550.509 456.914 550.265 457.245 550.022 457.566 549.726 457.727 549.378 457.727L549.378 458.562C549.987 458.562 550.505 458.318 550.931 457.831 551.357 457.344 551.57 456.753 551.57 456.057L551.57 454.701C551.57 454.414 551.67 454.166 551.87 453.957 552.078 453.757 552.326 453.657 552.613 453.657ZM552.825 442.225 552.825 444.1 554.7 444.1ZM541.2 441.1 541.2 462.1 556.2 462.1 556.2 445.6 551.325 445.6 551.325 441.1ZM539.7 439.6 540.623 439.6 552.45 439.6 557.7 444.85 557.7 463.6 539.7 463.6 539.7 440.523ZM584.787 453.031C585.074 453.031 585.322 452.931 585.531 452.731 585.731 452.523 585.831 452.275 585.831 451.988L585.831 450.631C585.831 449.936 586.044 449.344 586.47 448.857 586.896 448.37 587.413 448.127 588.022 448.127L588.022 448.962C587.674 448.962 587.378 449.123 587.135 449.445 586.891 449.775 586.77 450.17 586.77 450.631L586.77 451.988C586.77 452.292 586.683 452.571 586.509 452.823 586.335 453.066 586.109 453.24 585.831 453.345 586.109 453.449 586.335 453.622 586.509 453.866 586.683 454.118 586.77 454.397 586.77 454.701L586.77 456.057C586.77 456.518 586.891 456.914 587.135 457.245 587.378 457.566 587.674 457.727 588.022 457.727L588.022 458.562C587.413 458.562 586.896 458.318 586.47 457.831 586.044 457.344 585.831 456.753 585.831 456.057L585.831 454.701C585.831 454.414 585.731 454.166 585.531 453.957 585.322 453.757 585.074 453.657 584.787 453.657ZM592.613 453.031C592.326 453.031 592.078 452.931 591.87 452.731 591.67 452.523 591.57 452.275 591.57 451.988L591.57 450.631C591.57 449.936 591.357 449.344 590.931 448.857 590.505 448.37 589.987 448.127 589.378 448.127L589.378 448.962C589.726 448.962 590.022 449.123 590.265 449.445 590.509 449.775 590.631 450.17 590.631 450.631L590.631 451.988C590.631 452.275 590.726 452.544 590.918 452.796 591.1 453.04 591.348 453.218 591.661 453.331 591.348 453.444 591.1 453.627 590.918 453.879 590.726 454.131 590.631 454.405 590.631 454.701L590.631 456.057C590.631 456.518 590.509 456.914 590.265 457.245 590.022 457.566 589.726 457.727 589.378 457.727L589.378 458.562C589.987 458.562 590.505 458.318 590.931 457.831 591.357 457.344 591.57 456.753 591.57 456.057L591.57 454.701C591.57 454.414 591.67 454.166 591.87 453.957 592.078 453.757 592.326 453.657 592.613 453.657ZM592.825 442.225 592.825 444.1 594.7 444.1ZM581.2 441.1 581.2 462.1 596.2 462.1 596.2 445.6 591.325 445.6 591.325 441.1ZM579.7 439.6 580.623 439.6 592.45 439.6 597.7 444.85 597.7 463.6 579.7 463.6 579.7 440.523ZM624.787 453.031C625.074 453.031 625.322 452.931 625.531 452.731 625.731 452.523 625.831 452.275 625.831 451.988L625.831 450.631C625.831 449.936 626.044 449.344 626.47 448.857 626.896 448.37 627.413 448.127 628.022 448.127L628.022 448.962C627.674 448.962 627.378 449.123 627.135 449.445 626.891 449.775 626.77 450.17 626.77 450.631L626.77 451.988C626.77 452.292 626.683 452.571 626.509 452.823 626.335 453.066 626.109 453.24 625.831 453.345 626.109 453.449 626.335 453.622 626.509 453.866 626.683 454.118 626.77 454.397 626.77 454.701L626.77 456.057C626.77 456.518 626.891 456.914 627.135 457.245 627.378 457.566 627.674 457.727 628.022 457.727L628.022 458.562C627.413 458.562 626.896 458.318 626.47 457.831 626.044 457.344 625.831 456.753 625.831 456.057L625.831 454.701C625.831 454.414 625.731 454.166 625.531 453.957 625.322 453.757 625.074 453.657 624.787 453.657ZM632.613 453.031C632.326 453.031 632.078 452.931 631.87 452.731 631.67 452.523 631.57 452.275 631.57 451.988L631.57 450.631C631.57 449.936 631.357 449.344 630.931 448.857 630.505 448.37 629.987 448.127 629.378 448.127L629.378 448.962C629.726 448.962 630.022 449.123 630.265 449.445 630.509 449.775 630.631 450.17 630.631 450.631L630.631 451.988C630.631 452.275 630.726 452.544 630.918 452.796 631.1 453.04 631.348 453.218 631.661 453.331 631.348 453.444 631.1 453.627 630.918 453.879 630.726 454.131 630.631 454.405 630.631 454.701L630.631 456.057C630.631 456.518 630.509 456.914 630.265 457.245 630.022 457.566 629.726 457.727 629.378 457.727L629.378 458.562C629.987 458.562 630.505 458.318 630.931 457.831 631.357 457.344 631.57 456.753 631.57 456.057L631.57 454.701C631.57 454.414 631.67 454.166 631.87 453.957 632.078 453.757 632.326 453.657 632.613 453.657ZM632.825 442.225 632.825 444.1 634.7 444.1ZM621.2 441.1 621.2 462.1 636.2 462.1 636.2 445.6 631.325 445.6 631.325 441.1ZM619.7 439.6 620.623 439.6 632.45 439.6 637.7 444.85 637.7 463.6 619.7 463.6 619.7 440.523Z" fill="#000"/><path d="M768.013 440.069C773.777 440.173 778.811 444.632 779.108 450.504L779.143 450.504 779.143 451.896 779.108 451.896C778.863 457.909 773.73 462.042 768.013 462.33 761.866 462.33 756.883 457.347 756.883 451.2 756.883 445.053 761.866 440.07 768.013 440.07ZM768.412 451.896 763.728 459.915C765.052 460.653 766.526 460.864 768.013 460.939 772.988 460.848 777.458 457 777.717 451.896ZM762.222 443.412C759.612 445.148 758.426 448.184 758.274 451.2 758.317 454.431 759.855 457.389 762.535 459.199L767.198 451.216ZM768.013 441.461C766.346 441.386 764.872 442.002 763.376 442.634L768.394 450.504 777.717 450.504C777.482 445.28 772.964 441.711 768.013 441.461ZM763.203 435.928 763.743 437.943 765.087 437.583 764.547 435.567 763.202 435.928ZM759.413 437.691 760.456 439.5 761.661 438.804 760.618 436.995ZM756.208 440.379 757.683 441.854 758.667 440.87 757.192 439.395 756.208 440.378ZM753.808 443.802 755.617 444.846 756.313 443.641 754.504 442.598ZM752.378 447.733 754.394 448.272 754.754 446.929 752.739 446.387 752.378 447.731ZM752.013 451.896 754.1 451.896 754.1 450.504 752.013 450.504ZM752.741 456.013 754.755 455.473 754.395 454.129 752.379 454.669 752.739 456.014ZM754.503 459.802 756.312 458.758 755.616 457.553 753.808 458.597ZM757.192 463.004 758.667 461.529 757.683 460.546 756.208 462.021 757.191 463.005ZM760.615 465.405 761.659 463.596 760.454 462.9 759.411 464.709ZM764.546 466.835 765.085 464.819 763.742 464.459 763.2 466.474 764.544 466.835ZM768.709 467.2 768.709 465.113 767.317 465.113 767.317 467.2ZM772.823 466.472 772.283 464.457 770.939 464.817 771.479 466.833 772.824 466.472ZM776.613 464.709 775.57 462.9 774.365 463.596 775.408 465.405ZM779.815 462.023 778.341 460.548 777.358 461.531 778.832 463.006 779.818 462.022ZM782.218 458.598 780.409 457.554 779.713 458.759 781.522 459.802ZM783.648 454.667 781.632 454.128 781.272 455.471 783.287 456.013 783.648 454.669ZM784.013 450.504 781.926 450.504 781.926 451.896 784.013 451.896ZM783.285 446.39 781.27 446.93 781.63 448.274 783.646 447.734 783.285 446.389ZM781.522 442.6 779.713 443.643 780.409 444.848 782.218 443.805ZM778.836 439.398 777.361 440.872 778.344 441.855 779.819 440.381 778.835 439.395ZM775.411 436.995 774.367 438.804 775.572 439.5 776.615 437.691ZM771.48 435.565 770.941 437.581 772.284 437.941 772.826 435.926 771.482 435.565ZM767.317 435.2 767.317 437.287 768.709 437.287 768.709 435.2ZM768.013 465.113C775.697 465.113 781.926 458.884 781.926 451.2 781.926 443.516 775.697 437.287 768.013 437.287 760.329 437.287 754.1 443.516 754.1 451.2 754.1 458.884 760.329 465.113 768.013 465.113ZM768.013 463.722C761.098 463.722 755.491 458.115 755.491 451.2 755.491 444.285 761.098 438.678 768.013 438.678 774.928 438.678 780.535 444.285 780.535 451.2 780.535 458.115 774.928 463.722 768.013 463.722ZM845.674 440.069C851.438 440.173 856.472 444.632 856.769 450.504L856.804 450.504 856.804 451.896 856.769 451.896C856.524 457.909 851.391 462.042 845.674 462.33 839.527 462.33 834.544 457.347 834.544 451.2 834.544 445.053 839.527 440.07 845.674 440.07ZM846.073 451.896 841.389 459.915C842.713 460.653 844.187 460.864 845.674 460.939 850.649 460.848 855.119 457 855.378 451.896ZM839.883 443.412C837.273 445.148 836.087 448.184 835.935 451.2 835.978 454.431 837.516 457.389 840.196 459.199L844.859 451.216ZM845.674 441.461C844.007 441.386 842.533 442.002 841.037 442.634L846.055 450.504 855.378 450.504C855.143 445.28 850.625 441.711 845.674 441.461ZM840.864 435.928 841.404 437.943 842.748 437.583 842.208 435.567 840.863 435.928ZM837.074 437.691 838.117 439.5 839.322 438.804 838.279 436.995ZM833.869 440.379 835.344 441.854 836.328 440.87 834.853 439.395 833.869 440.378ZM831.469 443.802 833.278 444.846 833.974 443.641 832.165 442.598ZM830.039 447.733 832.055 448.272 832.415 446.929 830.4 446.387 830.039 447.731ZM829.674 451.896 831.761 451.896 831.761 450.504 829.674 450.504ZM830.402 456.013 832.416 455.473 832.056 454.129 830.04 454.669 830.4 456.014ZM832.164 459.802 833.973 458.758 833.277 457.553 831.469 458.597ZM834.853 463.004 836.328 461.529 835.344 460.546 833.869 462.021 834.852 463.005ZM838.276 465.405 839.32 463.596 838.115 462.9 837.072 464.709ZM842.207 466.835 842.746 464.819 841.403 464.459 840.861 466.474 842.205 466.835ZM846.37 467.2 846.37 465.113 844.978 465.113 844.978 467.2ZM850.484 466.472 849.944 464.457 848.6 464.817 849.14 466.833 850.485 466.472ZM854.274 464.709 853.231 462.9 852.026 463.596 853.069 465.405ZM857.476 462.023 856.002 460.548 855.019 461.531 856.493 463.006 857.479 462.022ZM859.879 458.598 858.07 457.554 857.374 458.759 859.183 459.802ZM861.309 454.667 859.293 454.128 858.933 455.471 860.948 456.013 861.309 454.669ZM861.674 450.504 859.587 450.504 859.587 451.896 861.674 451.896ZM860.946 446.39 858.931 446.93 859.291 448.274 861.307 447.734 860.946 446.389ZM859.183 442.6 857.374 443.643 858.07 444.848 859.879 443.805ZM856.497 439.398 855.022 440.872 856.005 441.855 857.48 440.381 856.496 439.395ZM853.072 436.995 852.028 438.804 853.233 439.5 854.276 437.691ZM849.141 435.565 848.602 437.581 849.945 437.941 850.487 435.926 849.143 435.565ZM844.978 435.2 844.978 437.287 846.37 437.287 846.37 435.2ZM845.674 465.113C853.358 465.113 859.587 458.884 859.587 451.2 859.587 443.516 853.358 437.287 845.674 437.287 837.99 437.287 831.761 443.516 831.761 451.2 831.761 458.884 837.99 465.113 845.674 465.113ZM845.674 463.722C838.759 463.722 833.152 458.115 833.152 451.2 833.152 444.285 838.759 438.678 845.674 438.678 852.589 438.678 858.196 444.285 858.196 451.2 858.196 458.115 852.589 463.722 845.674 463.722Z" fill="#3a8eed"/><path d="M 798.3915 439.204 C 798.5829 439.204 798.748 439.13733 798.887 439.004 C 799.0204 438.865 799.087 438.69983 799.087 438.5085 L 799.087 437.604 C 799.087 437.14033 799.229 436.74617 799.513 436.4215 C 799.797 436.09683 800.142 435.9345 800.548 435.9345 L 800.548 436.491 C 800.316 436.491 800.1189 436.59833 799.9565 436.813 C 799.7942 437.033 799.713 437.29667 799.713 437.604 L 799.713 438.5085 C 799.713 438.7115 799.655 438.897 799.539 439.065 C 799.423 439.22733 799.2724 439.34333 799.087 439.413 C 799.2724 439.48233 799.423 439.59817 799.539 439.7605 C 799.655 439.92883 799.713 440.11433 799.713 440.317 L 799.713 441.2215 C 799.713 441.52883 799.7942 441.79267 799.9565 442.013 C 800.1189 442.22733 800.316 442.3345 800.548 442.3345 L 800.548 442.891 C 800.142 442.891 799.797 442.72867 799.513 442.404 C 799.229 442.07933 799.087 441.68517 799.087 441.2215 L 799.087 440.317 C 799.087 440.12567 799.0204 439.9605 798.887 439.8215 C 798.748 439.68817 798.5829 439.6215 798.3915 439.6215 Z M 803.6085 439.204 C 803.4172 439.204 803.252 439.13733 803.113 439.004 C 802.9797 438.865 802.913 438.69983 802.913 438.5085 L 802.913 437.604 C 802.913 437.14033 802.771 436.74617 802.487 436.4215 C 802.203 436.09683 801.858 435.9345 801.452 435.9345 L 801.452 436.491 C 801.684 436.491 801.8812 436.59833 802.0435 436.813 C 802.2059 437.033 802.287 437.29667 802.287 437.604 L 802.287 438.5085 C 802.287 438.69983 802.3509 438.8795 802.4785 439.0475 C 802.6002 439.20983 802.7654 439.32867 802.974 439.404 C 802.7654 439.47933 802.6002 439.60117 802.4785 439.7695 C 802.3509 439.9375 802.287 440.12 802.287 440.317 L 802.287 441.2215 C 802.287 441.52883 802.2059 441.79267 802.0435 442.013 C 801.8812 442.22733 801.684 442.3345 801.452 442.3345 L 801.452 442.891 C 801.858 442.891 802.203 442.72867 802.487 442.404 C 802.771 442.07933 802.913 441.68517 802.913 441.2215 L 802.913 440.317 C 802.913 440.12567 802.9797 439.9605 803.113 439.8215 C 803.252 439.68817 803.4172 439.6215 803.6085 439.6215 Z M 803.75 432 L 803.75 433.25 L 805 433.25 Z M 796 431.25 L 796 445.25 L 806 445.25 L 806 434.25 L 802.75 434.25 L 802.75 431.25 Z M 795 430.25 L 795.6155 430.25 L 803.5 430.25 L 807 433.75 L 807 446.25 L 795 446.25 L 795 430.8655 Z" fill="red"/><path marker-start="url(#a)" stroke="#666a6b" stroke-linecap="square" stroke-linejoin="bevel" stroke-width="2" d="M814.247 451.7 788.3 451.7"/><path d="M 725.8915 440.204 C 726.08285 440.204 726.248 440.13733 726.387 440.004 C 726.52035 439.865 726.587 439.69983 726.587 439.5085 L 726.587 438.604 C 726.587 438.14033 726.729 437.74617 727.013 437.4215 C 727.297 437.09683 727.642 436.9345 728.048 436.9345 L 728.048 437.491 C 727.816 437.491 727.61885 437.59833 727.4565 437.813 C 727.2942 438.033 727.213 438.29667 727.213 438.604 L 727.213 439.5085 C 727.213 439.7115 727.155 439.897 727.039 440.065 C 726.923 440.22733 726.77235 440.34333 726.587 440.413 C 726.77235 440.48233 726.923 440.59817 727.039 440.7605 C 727.155 440.92883 727.213 441.11433 727.213 441.317 L 727.213 442.2215 C 727.213 442.52883 727.2942 442.79267 727.4565 443.013 C 727.61885 443.22733 727.816 443.3345 728.048 443.3345 L 728.048 443.891 C 727.642 443.891 727.297 443.72867 727.013 443.404 C 726.729 443.07933 726.587 442.68517 726.587 442.2215 L 726.587 441.317 C 726.587 441.12567 726.52035 440.9605 726.387 440.8215 C 726.248 440.68817 726.08285 440.6215 725.8915 440.6215 Z M 731.1085 440.204 C 730.9172 440.204 730.752 440.13733 730.613 440.004 C 730.4797 439.865 730.413 439.69983 730.413 439.5085 L 730.413 438.604 C 730.413 438.14033 730.271 437.74617 729.987 437.4215 C 729.703 437.09683 729.358 436.9345 728.952 436.9345 L 728.952 437.491 C 729.184 437.491 729.3812 437.59833 729.5435 437.813 C 729.70585 438.033 729.787 438.29667 729.787 438.604 L 729.787 439.5085 C 729.787 439.69983 729.85085 439.8795 729.9785 440.0475 C 730.1002 440.20983 730.26535 440.32867 730.474 440.404 C 730.26535 440.47933 730.1002 440.60117 729.9785 440.7695 C 729.85085 440.9375 729.787 441.12 729.787 441.317 L 729.787 442.2215 C 729.787 442.52883 729.70585 442.79267 729.5435 443.013 C 729.3812 443.22733 729.184 443.3345 728.952 443.3345 L 728.952 443.891 C 729.358 443.891 729.703 443.72867 729.987 443.404 C 730.271 443.07933 730.413 442.68517 730.413 442.2215 L 730.413 441.317 C 730.413 441.12567 730.4797 440.9605 730.613 440.8215 C 730.752 440.68817 730.9172 440.6215 731.1085 440.6215 Z M 731.25 433 L 731.25 434.25 L 732.5 434.25 Z M 723.5 432.25 L 723.5 446.25 L 733.5 446.25 L 733.5 435.25 L 730.25 435.25 L 730.25 432.25 Z M 722.5 431.25 L 723.1155 431.25 L 731 431.25 L 734.5 434.75 L 734.5 447.25 L 722.5 447.25 L 722.5 431.8655 Z" fill="#000"/><path d="M 924.8735 439.019 C 930.6375 439.123 935.6715 443.582 935.9685 449.454 L 936.0035 449.454 L 936.0035 450.846 L 935.9685 450.846 C 935.7235 456.859 930.5905 460.992 924.8735 461.28 C 918.7265 461.28 913.7435 456.297 913.7435 450.15 C 913.7435 444.003 918.7265 439.02 924.8735 439.02 Z M 925.2725 450.846 L 920.5885 458.865 C 921.9125 459.603 923.3865 459.814 924.8735 459.889 C 929.8485 459.798 934.3185 455.95 934.5775 450.846 Z M 919.0825 442.362 C 916.4725 444.098 915.2865 447.134 915.1345 450.15 C 915.1775 453.381 916.7155 456.339 919.3955 458.149 L 924.0585 450.166 Z M 924.8735 440.411 C 923.2065 440.336 921.7325 440.952 920.2365 441.584 L 925.2545 449.454 L 934.5775 449.454 C 934.3425 444.23 929.8245 440.661 924.8735 440.411 Z M 920.0635 434.878 L 920.6035 436.893 L 921.9475 436.533 L 921.4075 434.517 L 920.0625 434.878 Z M 916.2735 436.641 L 917.3165 438.45 L 918.5215 437.754 L 917.4785 435.945 Z M 913.0685 439.329 L 914.5435 440.804 L 915.5275 439.82 L 914.0525 438.345 L 913.0685 439.328 Z M 910.6685 442.752 L 912.4775 443.796 L 913.1735 442.591 L 911.3645 441.548 Z M 909.2385 446.683 L 911.2545 447.222 L 911.6145 445.879 L 909.5995 445.337 L 909.2385 446.681 Z M 908.8735 450.846 L 910.9605 450.846 L 910.9605 449.454 L 908.8735 449.454 Z M 909.6015 454.963 L 911.6155 454.423 L 911.2555 453.079 L 909.2395 453.619 L 909.5995 454.964 Z M 911.3635 458.752 L 913.1725 457.708 L 912.4765 456.503 L 910.6685 457.547 Z M 914.0525 461.954 L 915.5275 460.479 L 914.5435 459.496 L 913.0685 460.971 L 914.0515 461.955 Z M 917.4755 464.355 L 918.5195 462.546 L 917.3145 461.85 L 916.2715 463.659 Z M 921.4065 465.785 L 921.9455 463.769 L 920.6025 463.409 L 920.0605 465.424 L 921.4045 465.785 Z M 925.5695 466.15 L 925.5695 464.063 L 924.1775 464.063 L 924.1775 466.15 Z M 929.6835 465.422 L 929.1435 463.407 L 927.7995 463.767 L 928.3395 465.783 L 929.6845 465.422 Z M 933.4735 463.659 L 932.4305 461.85 L 931.2255 462.546 L 932.2685 464.355 Z M 936.6755 460.973 L 935.2015 459.498 L 934.2185 460.481 L 935.6925 461.956 L 936.6785 460.972 Z M 939.0785 457.548 L 937.2695 456.504 L 936.5735 457.709 L 938.3825 458.752 Z M 940.5085 453.617 L 938.4925 453.078 L 938.1325 454.421 L 940.1475 454.963 L 940.5085 453.619 Z M 940.8735 449.454 L 938.7865 449.454 L 938.7865 450.846 L 940.8735 450.846 Z M 940.1455 445.34 L 938.1305 445.88 L 938.4905 447.224 L 940.5065 446.684 L 940.1455 445.339 Z M 938.3825 441.55 L 936.5735 442.593 L 937.2695 443.798 L 939.0785 442.755 Z M 935.6965 438.348 L 934.2215 439.822 L 935.2045 440.805 L 936.6795 439.331 L 935.6955 438.345 Z M 932.2715 435.945 L 931.2275 437.754 L 932.4325 438.45 L 933.4755 436.641 Z M 928.3405 434.515 L 927.8015 436.531 L 929.1445 436.891 L 929.6865 434.876 L 928.3425 434.515 Z M 924.1775 434.15 L 924.1775 436.237 L 925.5695 436.237 L 925.5695 434.15 Z M 924.8735 464.063 C 932.5575 464.063 938.7865 457.834 938.7865 450.15 C 938.7865 442.466 932.5575 436.237 924.8735 436.237 C 917.1895 436.237 910.9605 442.466 910.9605 450.15 C 910.9605 457.834 917.1895 464.063 924.8735 464.063 Z M 924.8735 462.672 C 917.9585 462.672 912.3515 457.065 912.3515 450.15 C 912.3515 443.235 917.9585 437.628 924.8735 437.628 C 931.7885 437.628 937.3955 443.235 937.3955 450.15 C 937.3955 457.065 931.7885 462.672 924.8735 462.672 Z" fill="#3a8eed"/><path d="M 877.5915 438.154 C 877.7829 438.154 877.948 438.08734 878.087 437.954 C 878.2204 437.815 878.287 437.64984 878.287 437.4585 L 878.287 436.554 C 878.287 436.09034 878.429 435.69617 878.713 435.3715 C 878.997 435.04684 879.342 434.8845 879.748 434.8845 L 879.748 435.441 C 879.516 435.441 879.3189 435.54834 879.1565 435.763 C 878.9942 435.983 878.913 436.24667 878.913 436.554 L 878.913 437.4585 C 878.913 437.6615 878.855 437.847 878.739 438.015 C 878.623 438.17734 878.4724 438.29334 878.287 438.363 C 878.4724 438.43234 878.623 438.54817 878.739 438.7105 C 878.855 438.87884 878.913 439.06434 878.913 439.267 L 878.913 440.1715 C 878.913 440.47884 878.9942 440.74267 879.1565 440.963 C 879.3189 441.17734 879.516 441.2845 879.748 441.2845 L 879.748 441.841 C 879.342 441.841 878.997 441.67867 878.713 441.354 C 878.429 441.02934 878.287 440.63517 878.287 440.1715 L 878.287 439.267 C 878.287 439.07567 878.2204 438.9105 878.087 438.7715 C 877.948 438.63817 877.7829 438.5715 877.5915 438.5715 Z M 882.8085 438.154 C 882.6172 438.154 882.452 438.08734 882.313 437.954 C 882.1797 437.815 882.113 437.64984 882.113 437.4585 L 882.113 436.554 C 882.113 436.09034 881.971 435.69617 881.687 435.3715 C 881.403 435.04684 881.058 434.8845 880.652 434.8845 L 880.652 435.441 C 880.884 435.441 881.0812 435.54834 881.2435 435.763 C 881.4059 435.983 881.487 436.24667 881.487 436.554 L 881.487 437.4585 C 881.487 437.64984 881.5509 437.8295 881.6785 437.9975 C 881.8002 438.15984 881.9654 438.27867 882.174 438.354 C 881.9654 438.42934 881.8002 438.55117 881.6785 438.7195 C 881.5509 438.8875 881.487 439.07 881.487 439.267 L 881.487 440.1715 C 881.487 440.47884 881.4059 440.74267 881.2435 440.963 C 881.0812 441.17734 880.884 441.2845 880.652 441.2845 L 880.652 441.841 C 881.058 441.841 881.403 441.67867 881.687 441.354 C 881.971 441.02934 882.113 440.63517 882.113 440.1715 L 882.113 439.267 C 882.113 439.07567 882.1797 438.9105 882.313 438.7715 C 882.452 438.63817 882.6172 438.5715 882.8085 438.5715 Z M 882.95 430.95 L 882.95 432.2 L 884.2 432.2 Z M 875.2 430.2 L 875.2 444.2 L 885.2 444.2 L 885.2 433.2 L 881.95 433.2 L 881.95 430.2 Z M 874.2 429.2 L 874.8155 429.2 L 882.7 429.2 L 886.2 432.7 L 886.2 445.2 L 874.2 445.2 L 874.2 429.8155 Z" fill="#9437ff"/><path marker-start="url(#a)" stroke="#666a6b" stroke-linecap="square" stroke-linejoin="bevel" stroke-width="2" d="M893.447 450.65 867.5 450.65"/><path d="M 927.2762 656.617 C 927.4676 656.617 927.6327 656.5503 927.7717 656.417 C 927.9051 656.278 927.9717 656.1128 927.9717 655.9215 L 927.9717 655.017 C 927.9717 654.5533 928.1137 654.1591 928.3977 653.8345 C 928.6817 653.5098 929.0267 653.3475 929.4327 653.3475 L 929.4327 653.904 C 929.2007 653.904 929.0036 654.0113 928.8412 654.226 C 928.6789 654.446 928.5977 654.7096 928.5977 655.017 L 928.5977 655.9215 C 928.5977 656.1245 928.5397 656.31 928.4237 656.478 C 928.3077 656.6403 928.1571 656.7563 927.9717 656.826 C 928.1571 656.8953 928.3077 657.0111 928.4237 657.1735 C 928.5397 657.3418 928.5977 657.5273 928.5977 657.73 L 928.5977 658.6345 C 928.5977 658.9418 928.6789 659.2056 928.8412 659.426 C 929.0036 659.6403 929.2007 659.7475 929.4327 659.7475 L 929.4327 660.304 C 929.0267 660.304 928.6817 660.1416 928.3977 659.817 C 928.1137 659.4923 927.9717 659.0981 927.9717 658.6345 L 927.9717 657.73 C 927.9717 657.5386 927.9051 657.3735 927.7717 657.2345 C 927.6327 657.1011 927.4676 657.0345 927.2762 657.0345 Z M 932.4932 656.617 C 932.3019 656.617 932.1367 656.5503 931.9977 656.417 C 931.8644 656.278 931.7977 656.1128 931.7977 655.9215 L 931.7977 655.017 C 931.7977 654.5533 931.6557 654.1591 931.3717 653.8345 C 931.0877 653.5098 930.7427 653.3475 930.3367 653.3475 L 930.3367 653.904 C 930.5687 653.904 930.7659 654.0113 930.9282 654.226 C 931.0906 654.446 931.1717 654.7096 931.1717 655.017 L 931.1717 655.9215 C 931.1717 656.1128 931.2356 656.2925 931.3632 656.4605 C 931.4849 656.6228 931.6501 656.7416 931.8587 656.817 C 931.6501 656.8923 931.4849 657.0141 931.3632 657.1825 C 931.2356 657.3505 931.1717 657.533 931.1717 657.73 L 931.1717 658.6345 C 931.1717 658.9418 931.0906 659.2056 930.9282 659.426 C 930.7659 659.6403 930.5687 659.7475 930.3367 659.7475 L 930.3367 660.304 C 930.7427 660.304 931.0877 660.1416 931.3717 659.817 C 931.6557 659.4923 931.7977 659.0981 931.7977 658.6345 L 931.7977 657.73 C 931.7977 657.5386 931.8644 657.3735 931.9977 657.2345 C 932.1367 657.1011 932.3019 657.0345 932.4932 657.0345 Z M 932.6347 649.413 L 932.6347 650.663 L 933.8847 650.663 Z M 924.8847 648.663 L 924.8847 662.663 L 934.8847 662.663 L 934.8847 651.663 L 931.6347 651.663 L 931.6347 648.663 Z M 923.8847 647.663 L 924.5002 647.663 L 932.3847 647.663 L 935.8847 651.163 L 935.8847 663.663 L 923.8847 663.663 L 923.8847 648.2785 Z" fill="#00f"/><path d="M 959.885 615.0467 C 1041.8818 615.7009 1048.9868 621.7471 1048.9868 535.5 C 1048.9868 445.5 1046.75 450.65 948 450.65" marker-start="url(#a)" stroke="#666a6b" stroke-linecap="square" stroke-linejoin="bevel" stroke-width="2"/><path d="M 375.8301 605.5496 C 375.78592 601.97106 374.30544 598.898 371.93426 596.7485 C 369.52454 594.55965 366.21677 593.3074 362.5941 593.3074 C 358.18945 593.3074 354.30257 595.4749 351.89695 598.7835 C 351.01033 598.3443 350.0149 598.0858 348.9606 598.0858 C 347.2208 598.0866 345.60044 598.5553 344.3743 599.5172 C 343.3372 600.3237 342.61903 601.5073 342.399 602.9379 C 342.06037 602.9035 341.71847 602.8814 341.3708 602.88144 C 335.84152 602.88225 331.35918 607.3638 331.35916 612.8939 C 331.35918 613.2317 331.38126 613.5638 331.41396 613.8926 C 327.1762 615.0034 324.05165 618.8502 324.05 623.4356 C 324.05083 628.888 328.46937 633.3074 333.92182 633.3074 C 338.9677 633.3074 363.9977 633.3074 371.4508 633.3074 C 379.3088 633.3074 385.679 626.9364 385.67897 619.07756 C 385.67653 612.7491 381.54345 607.3981 375.8301 605.5496 L 375.8301 605.5496 Z M 380.4703 628.0987 C 378.1596 630.4086 374.9745 631.8351 371.45 631.8351 C 363.9977 631.8351 338.9669 631.8351 333.92096 631.8351 C 331.59884 631.8351 329.50326 630.8961 327.9811 629.3747 C 326.45968 627.8525 325.52068 625.7561 325.52067 623.4348 C 325.51904 619.3279 328.46937 615.90886 332.36197 615.1784 L 333.07197 615.0459 L 332.9509 614.3327 C 332.87156 613.864 332.82903 613.38386 332.829 612.8931 C 332.82984 610.5317 333.7844 608.40175 335.33115 606.8534 C 336.87868 605.30664 339.00943 604.3513 341.37003 604.3513 C 341.9017 604.3513 342.4211 604.40036 342.92572 604.4928 L 343.77558 604.64985 L 343.79442 603.78524 C 343.83122 602.3833 344.3825 601.3903 345.28305 600.6738 C 346.18527 599.9622 347.48253 599.5565 348.9606 599.55726 C 349.97645 599.5573 350.9171 599.8485 351.7154 600.3515 L 352.32805 600.73926 L 352.72395 600.1315 C 354.82687 596.90715 358.45937 594.77804 362.5941 594.77805 C 365.87978 594.77804 368.82684 595.9117 370.94534 597.83635 C 373.06216 599.76424 374.36433 602.4708 374.36847 605.7238 C 374.36842 605.8342 374.36597 605.9479 374.36273 606.0648 L 374.34884 606.6374 L 374.8993 606.7912 C 380.26663 608.2954 384.2075 613.226 384.2059 619.0768 C 384.2067 622.6021 382.7802 625.7872 380.4703 628.0987 L 380.4703 628.0987 Z" fill="#000"/><text transform="translate(653.2 323.6)" fill="#000">
          <tspan font-family="Display,Helvetica,sans-serif" font-size="18" x="78.527" y="17">Datum Queue User Filters</tspan>
        </text><path stroke="#666" stroke-width="2" d="M298.2 348.6 1008.2 348.6"/><path stroke="#666" stroke-linejoin="round" d="M1008.2 343.6 1008.2 349.6M448.2 343.6 448.2 349.6"/><path stroke="#666" d="M298.2 343.6 298.2 349.6"/><path stroke="#666" stroke-linejoin="round" d="M648.2 343.6 648.2 349.6"/><text transform="translate(443.517 500.221)" fill="#000">
          <tspan font-family="Display,Helvetica,sans-serif" font-size="18" x="0" y="17">datum</tspan>
        </text><path marker-end="url(#b)" stroke="#000" stroke-linecap="round" stroke-linejoin="round" d="M467.2 502.75 467.2 472.65"/><path d="M 861.6735 651.25714 C 861.6741 650.0643 861.2001 648.9389 860.3935 647.9592 C 859.181 646.4858 857.2317 645.2929 854.8156 644.4487 C 852.3982 643.60695 849.5069 643.1216 846.3982 643.121 C 842.2525 643.1228 838.4955 643.9825 835.7301 645.4064 C 834.3474 646.1198 833.2101 646.9759 832.4029 647.9586 C 831.5969 648.9383 831.1223 650.0637 831.1235 651.2566 C 831.1235 651.407 831.1235 673.3999 831.1235 675.4991 C 831.1223 676.6919 831.5969 677.8167 832.4029 678.7964 C 833.6149 680.2698 835.5641 681.46266 837.9809 682.30685 C 840.3982 683.1486 843.2895 683.6346 846.3982 683.6352 C 850.5433 683.6334 854.3003 682.7731 857.0657 681.34925 C 858.4484 680.6358 859.5857 679.7797 860.3929 678.79696 C 861.1989 677.8173 861.6735 676.6925 861.6729 675.4996 C 861.6735 671.2972 861.6735 651.3389 861.6735 651.25714 L 861.6735 651.25714 Z M 833.2292 648.63744 C 834.2543 647.3819 836.0429 646.2535 838.3319 645.4583 C 840.6197 644.6613 843.4006 644.1896 846.3982 644.19024 C 850.3935 644.18844 854.0066 645.03024 856.5756 646.3568 C 857.861 647.0189 858.8819 647.801 859.5667 648.63744 C 860.2526 649.4756 860.6031 650.3509 860.6043 651.25714 C 860.6031 652.1628 860.2526 653.03804 859.5667 653.87626 C 858.5416 655.1318 856.7523 656.26015 854.4633 657.0554 C 852.1756 657.853 849.3946 658.3246 846.3982 658.324 C 842.4024 658.3258 838.7892 657.484 836.2197 656.1569 C 834.9349 655.4948 833.9134 654.7121 833.2292 653.87626 C 832.5438 653.03804 832.1928 652.1628 832.1922 651.25714 C 832.1928 650.3509 832.5438 649.4756 833.2292 648.63744 L 833.2292 648.63744 Z M 832.4023 654.55446 C 833.6143 656.0279 835.5635 657.22075 837.9802 658.0649 C 840.3976 658.9067 843.2889 659.3927 846.3976 659.3933 C 850.5427 659.3915 854.2997 658.5312 857.0651 657.1073 C 858.4478 656.3939 859.5851 655.53775 860.3923 654.5551 C 860.4789 654.45 860.5458 654.33655 860.6246 654.2279 C 860.6132 655.6154 860.6031 657.4046 860.6031 659.31746 C 860.6019 660.22375 860.2514 661.099 859.5655 661.9372 C 858.5404 663.1921 856.7511 664.3205 854.4621 665.1157 C 852.1744 665.9133 849.3935 666.385 846.397 666.38435 C 842.4012 666.3862 838.788 665.5444 836.2185 664.2178 C 834.9337 663.5557 833.9122 662.773 833.228 661.9372 C 832.5426 661.099 832.1916 660.22375 832.191 659.31746 C 832.191 658.7461 832.191 658.1897 832.191 657.653 C 832.1904 656.3688 832.1898 655.207 832.1898 654.2565 C 832.2632 654.3551 832.3235 654.45894 832.4023 654.55446 L 832.4023 654.55446 Z M 860.6043 675.4996 C 860.6031 676.4053 860.2526 677.28055 859.5667 678.1188 C 858.5416 679.3743 856.7523 680.50265 854.4633 681.2979 C 852.1756 682.0955 849.3946 682.56714 846.3982 682.5665 C 842.4024 682.5683 838.7892 681.7265 836.2196 680.3994 C 834.9349 679.7373 833.9134 678.9546 833.2292 678.1188 C 832.5438 677.28055 832.1928 676.4053 832.1922 675.4996 C 832.1922 673.5599 832.1916 671.7922 832.191 670.4453 C 832.2632 670.5438 832.3235 670.6477 832.4029 670.7438 C 833.6149 672.2172 835.5641 673.4101 837.9809 674.2537 C 840.3982 675.09606 843.2895 675.5814 846.3982 675.58206 C 850.5433 675.58024 854.3003 674.7205 857.0657 673.29604 C 858.4484 672.5826 859.5857 671.7265 860.3929 670.7438 C 860.4628 670.6584 860.5159 670.5665 860.5804 670.4793 C 860.5929 671.7868 860.6043 673.5337 860.6043 675.4996 L 860.6043 675.4996 Z M 860.6043 667.4387 C 860.6031 668.345 860.2526 669.2202 859.5667 670.05845 C 858.5416 671.31335 856.7523 672.4417 854.4633 673.23695 C 852.1756 674.0346 849.3946 674.5062 846.3982 674.5056 C 842.4024 674.5074 838.7892 673.6656 836.2196 672.339 C 834.9349 671.6769 833.9134 670.89425 833.2292 670.05845 C 832.5438 669.2202 832.1928 668.345 832.1922 667.4387 L 832.1922 667.4387 C 832.1922 665.4978 832.1916 663.73 832.191 662.3844 C 832.2632 662.4829 832.3235 662.58674 832.4029 662.68286 C 833.6149 664.1563 835.5641 665.34915 837.9809 666.19275 C 840.3982 667.0351 843.2895 667.5205 846.3982 667.5211 C 850.5433 667.5193 854.3003 666.6596 857.0657 665.2357 C 858.4484 664.5223 859.5857 663.66615 860.3929 662.6835 C 860.4628 662.5981 860.5159 662.50615 860.5804 662.419 C 860.5929 663.72526 860.6043 665.4715 860.6043 667.4387 L 860.6043 667.4387 Z" fill="#000"/><path d="M 738.0546 450.65756 C 699.6453 450.65756 674.2438 450.65756 674.2438 450.65756 C 674.2438 450.65756 694.0133 450.7 649.0133 450.7" marker-start="url(#c)" stroke="#666a6b" stroke-linecap="square" stroke-linejoin="bevel" stroke-width="2"/><path d="M 768.0133 603.669 C 773.7773 603.773 778.8113 608.232 779.1083 614.104 L 779.1433 614.104 L 779.1433 615.496 L 779.1083 615.496 C 778.8633 621.509 773.7303 625.642 768.0133 625.93 C 761.8663 625.93 756.8833 620.947 756.8833 614.8 C 756.8833 608.653 761.8663 603.67 768.0133 603.67 Z M 768.4123 615.496 L 763.7283 623.515 C 765.0523 624.253 766.5263 624.464 768.0133 624.539 C 772.9883 624.448 777.4583 620.6 777.7173 615.496 Z M 762.2223 607.012 C 759.6123 608.748 758.4263 611.784 758.2743 614.8 C 758.3173 618.031 759.8553 620.989 762.5353 622.799 L 767.1983 614.816 Z M 768.0133 605.061 C 766.3463 604.986 764.8723 605.602 763.3763 606.234 L 768.3943 614.104 L 777.7173 614.104 C 777.4823 608.88 772.9643 605.311 768.0133 605.061 Z M 763.2033 599.528 L 763.7433 601.543 L 765.0873 601.183 L 764.5473 599.167 L 763.2023 599.528 Z M 759.4133 601.291 L 760.4563 603.1 L 761.6613 602.404 L 760.6183 600.595 Z M 756.2083 603.979 L 757.6833 605.454 L 758.6673 604.47 L 757.1923 602.995 L 756.2083 603.978 Z M 753.8083 607.402 L 755.6173 608.446 L 756.3133 607.241 L 754.5043 606.198 Z M 752.3783 611.333 L 754.3943 611.872 L 754.7543 610.529 L 752.7393 609.987 L 752.3783 611.331 Z M 752.0133 615.496 L 754.1003 615.496 L 754.1003 614.104 L 752.0133 614.104 Z M 752.7413 619.613 L 754.7553 619.073 L 754.3953 617.729 L 752.3793 618.269 L 752.7393 619.614 Z M 754.5033 623.402 L 756.3123 622.358 L 755.6163 621.153 L 753.8083 622.197 Z M 757.1923 626.604 L 758.6673 625.129 L 757.6833 624.146 L 756.2083 625.621 L 757.1913 626.605 Z M 760.6153 629.005 L 761.6593 627.196 L 760.4543 626.5 L 759.4113 628.309 Z M 764.5463 630.435 L 765.0853 628.419 L 763.7423 628.059 L 763.2003 630.074 L 764.5443 630.435 Z M 768.7093 630.8 L 768.7093 628.713 L 767.3173 628.713 L 767.3173 630.8 Z M 772.8233 630.072 L 772.2833 628.057 L 770.9393 628.417 L 771.4793 630.433 L 772.8243 630.072 Z M 776.6133 628.309 L 775.5703 626.5 L 774.3653 627.196 L 775.4083 629.005 Z M 779.8153 625.623 L 778.3413 624.148 L 777.3583 625.131 L 778.8323 626.606 L 779.8183 625.622 Z M 782.2183 622.198 L 780.4093 621.154 L 779.7133 622.359 L 781.5223 623.402 Z M 783.6483 618.267 L 781.6323 617.728 L 781.2723 619.071 L 783.2873 619.613 L 783.6483 618.269 Z M 784.0133 614.104 L 781.9263 614.104 L 781.9263 615.496 L 784.0133 615.496 Z M 783.2853 609.99 L 781.2703 610.53 L 781.6303 611.874 L 783.6463 611.334 L 783.2853 609.989 Z M 781.5223 606.2 L 779.7133 607.243 L 780.4093 608.448 L 782.2183 607.405 Z M 778.8363 602.998 L 777.3613 604.472 L 778.3443 605.455 L 779.8193 603.981 L 778.8353 602.995 Z M 775.4113 600.595 L 774.3673 602.404 L 775.5723 603.1 L 776.6153 601.291 Z M 771.4803 599.165 L 770.9413 601.181 L 772.2843 601.541 L 772.8263 599.526 L 771.4823 599.165 Z M 767.3173 598.8 L 767.3173 600.887 L 768.7093 600.887 L 768.7093 598.8 Z M 768.0133 628.713 C 775.6973 628.713 781.9263 622.484 781.9263 614.8 C 781.9263 607.116 775.6973 600.887 768.0133 600.887 C 760.3293 600.887 754.1003 607.116 754.1003 614.8 C 754.1003 622.484 760.3293 628.713 768.0133 628.713 Z M 768.0133 627.322 C 761.0983 627.322 755.4913 621.715 755.4913 614.8 C 755.4913 607.885 761.0983 602.278 768.0133 602.278 C 774.9283 602.278 780.5353 607.885 780.5353 614.8 C 780.5353 621.715 774.9283 627.322 768.0133 627.322 Z" fill="#68bc36"/><text transform="translate(398.934 555.842)" fill="#000">
          <tspan font-family="Display,Helvetica,sans-serif" font-size="18" x="20.587" y="17">Global Filter Chain</tspan>
        </text><text transform="translate(593.3 555.842)" fill="#000">
          <tspan font-family="Display,Helvetica,sans-serif" font-size="18" x="19.098" y="17">Global Datum Filters</tspan>
        </text><text transform="translate(793.3 555.842)" fill="#000">
          <tspan font-family="Display,Helvetica,sans-serif" font-size="18" x="44.494" y="17">Upload or save?</tspan>
        </text><path stroke="#666" stroke-width="2" d="M298.2 580.842 1008.2 580.842"/><path stroke="#666" stroke-linejoin="round" d="M1008.2 575.842 1008.2 581.842M393.934 575.842 393.934 581.842"/><path stroke="#666" d="M298.2 575.842 298.2 581.842"/><path stroke="#666" stroke-linejoin="round" d="M788.3 575.842 788.3 581.842"/><path d="M 688.81326 603.669 C 694.57726 603.773 699.61126 608.232 699.90826 614.104 L 699.94326 614.104 L 699.94326 615.496 L 699.90826 615.496 C 699.66326 621.509 694.53026 625.642 688.81326 625.93 C 682.66626 625.93 677.68326 620.947 677.68326 614.8 C 677.68326 608.653 682.66626 603.67 688.81326 603.67 Z M 689.21226 615.496 L 684.52826 623.515 C 685.85226 624.253 687.32626 624.464 688.81326 624.539 C 693.78826 624.448 698.25826 620.6 698.51726 615.496 Z M 683.02226 607.012 C 680.41226 608.748 679.22626 611.784 679.07426 614.8 C 679.11726 618.031 680.65526 620.989 683.33526 622.799 L 687.99826 614.816 Z M 688.81326 605.061 C 687.14626 604.986 685.67226 605.602 684.17626 606.234 L 689.19426 614.104 L 698.51726 614.104 C 698.28226 608.88 693.76426 605.311 688.81326 605.061 Z M 684.00326 599.528 L 684.54326 601.543 L 685.88726 601.183 L 685.34726 599.167 L 684.00226 599.528 Z M 680.21326 601.291 L 681.25626 603.1 L 682.46126 602.404 L 681.41826 600.595 Z M 677.00826 603.979 L 678.48326 605.454 L 679.46726 604.47 L 677.99226 602.995 L 677.00826 603.978 Z M 674.60826 607.402 L 676.41726 608.446 L 677.11326 607.241 L 675.30426 606.198 Z M 673.17826 611.333 L 675.19426 611.872 L 675.55426 610.529 L 673.53926 609.987 L 673.17826 611.331 Z M 672.81326 615.496 L 674.90026 615.496 L 674.90026 614.104 L 672.81326 614.104 Z M 673.54126 619.613 L 675.55526 619.073 L 675.19526 617.729 L 673.17926 618.269 L 673.53926 619.614 Z M 675.30326 623.402 L 677.11226 622.358 L 676.41626 621.153 L 674.60826 622.197 Z M 677.99226 626.604 L 679.46726 625.129 L 678.48326 624.146 L 677.00826 625.621 L 677.99126 626.605 Z M 681.41526 629.005 L 682.45926 627.196 L 681.25426 626.5 L 680.21126 628.309 Z M 685.34626 630.435 L 685.88526 628.419 L 684.54226 628.059 L 684.00026 630.074 L 685.34426 630.435 Z M 689.50926 630.8 L 689.50926 628.713 L 688.11726 628.713 L 688.11726 630.8 Z M 693.62326 630.072 L 693.08326 628.057 L 691.73926 628.417 L 692.27926 630.433 L 693.62426 630.072 Z M 697.41326 628.309 L 696.37026 626.5 L 695.16526 627.196 L 696.20826 629.005 Z M 700.61526 625.623 L 699.14126 624.148 L 698.15826 625.131 L 699.63226 626.606 L 700.61826 625.622 Z M 703.01826 622.198 L 701.20926 621.154 L 700.51326 622.359 L 702.32226 623.402 Z M 704.44826 618.267 L 702.43226 617.728 L 702.07226 619.071 L 704.08726 619.613 L 704.44826 618.269 Z M 704.81326 614.104 L 702.72626 614.104 L 702.72626 615.496 L 704.81326 615.496 Z M 704.08526 609.99 L 702.07026 610.53 L 702.43026 611.874 L 704.44626 611.334 L 704.08526 609.989 Z M 702.32226 606.2 L 700.51326 607.243 L 701.20926 608.448 L 703.01826 607.405 Z M 699.63626 602.998 L 698.16126 604.472 L 699.14426 605.455 L 700.61926 603.981 L 699.63526 602.995 Z M 696.21126 600.595 L 695.16726 602.404 L 696.37226 603.1 L 697.41526 601.291 Z M 692.28026 599.165 L 691.74126 601.181 L 693.08426 601.541 L 693.62626 599.526 L 692.28226 599.165 Z M 688.11726 598.8 L 688.11726 600.887 L 689.50926 600.887 L 689.50926 598.8 Z M 688.81326 628.713 C 696.49726 628.713 702.72626 622.484 702.72626 614.8 C 702.72626 607.116 696.49726 600.887 688.81326 600.887 C 681.12926 600.887 674.90026 607.116 674.90026 614.8 C 674.90026 622.484 681.12926 628.713 688.81326 628.713 Z M 688.81326 627.322 C 681.89826 627.322 676.29126 621.715 676.29126 614.8 C 676.29126 607.885 681.89826 602.278 688.81326 602.278 C 695.72826 602.278 701.33526 607.885 701.33526 614.8 C 701.33526 621.715 695.72826 627.322 688.81326 627.322 Z" fill="#68bc36"/><path d="M531.278 603.669C537.042 603.773 542.076 608.232 542.373 614.104L542.408 614.104 542.408 615.496 542.373 615.496C542.128 621.509 536.995 625.642 531.278 625.93 525.131 625.93 520.148 620.947 520.148 614.8 520.148 608.653 525.131 603.67 531.278 603.67ZM531.677 615.496 526.993 623.515C528.317 624.253 529.791 624.464 531.278 624.539 536.253 624.448 540.723 620.6 540.982 615.496ZM525.487 607.012C522.877 608.748 521.691 611.784 521.539 614.8 521.582 618.031 523.12 620.989 525.8 622.799L530.463 614.816ZM531.278 605.061C529.611 604.986 528.137 605.602 526.641 606.234L531.659 614.104 540.982 614.104C540.747 608.88 536.229 605.311 531.278 605.061ZM526.468 599.528 527.008 601.543 528.352 601.183 527.812 599.167 526.467 599.528ZM522.678 601.291 523.721 603.1 524.926 602.404 523.883 600.595ZM519.473 603.979 520.948 605.454 521.932 604.47 520.457 602.995 519.473 603.978ZM517.073 607.402 518.882 608.446 519.578 607.241 517.769 606.198ZM515.643 611.333 517.659 611.872 518.019 610.529 516.004 609.987 515.643 611.331ZM515.278 615.496 517.365 615.496 517.365 614.104 515.278 614.104ZM516.006 619.613 518.02 619.073 517.66 617.729 515.644 618.269 516.004 619.614ZM517.768 623.402 519.577 622.358 518.881 621.153 517.073 622.197ZM520.457 626.604 521.932 625.129 520.948 624.146 519.473 625.621 520.456 626.605ZM523.88 629.005 524.924 627.196 523.719 626.5 522.676 628.309ZM527.811 630.435 528.35 628.419 527.007 628.059 526.465 630.074 527.809 630.435ZM531.974 630.8 531.974 628.713 530.582 628.713 530.582 630.8ZM536.088 630.072 535.548 628.057 534.204 628.417 534.744 630.433 536.089 630.072ZM539.878 628.309 538.835 626.5 537.63 627.196 538.673 629.005ZM543.08 625.623 541.606 624.148 540.623 625.131 542.097 626.606 543.083 625.622ZM545.483 622.198 543.674 621.154 542.978 622.359 544.787 623.402ZM546.913 618.267 544.897 617.728 544.537 619.071 546.552 619.613 546.913 618.269ZM547.278 614.104 545.191 614.104 545.191 615.496 547.278 615.496ZM546.55 609.99 544.535 610.53 544.895 611.874 546.911 611.334 546.55 609.989ZM544.787 606.2 542.978 607.243 543.674 608.448 545.483 607.405ZM542.101 602.998 540.626 604.472 541.609 605.455 543.084 603.981 542.1 602.995ZM538.676 600.595 537.632 602.404 538.837 603.1 539.88 601.291ZM534.745 599.165 534.206 601.181 535.549 601.541 536.091 599.526 534.747 599.165ZM530.582 598.8 530.582 600.887 531.974 600.887 531.974 598.8ZM531.278 628.713C538.962 628.713 545.191 622.484 545.191 614.8 545.191 607.116 538.962 600.887 531.278 600.887 523.594 600.887 517.365 607.116 517.365 614.8 517.365 622.484 523.594 628.713 531.278 628.713ZM531.278 627.322C524.363 627.322 518.756 621.715 518.756 614.8 518.756 607.885 524.363 602.278 531.278 602.278 538.193 602.278 543.8 607.885 543.8 614.8 543.8 621.715 538.193 627.322 531.278 627.322ZM452.078 603.669C457.842 603.773 462.876 608.232 463.173 614.104L463.208 614.104 463.208 615.496 463.173 615.496C462.928 621.509 457.795 625.642 452.078 625.93 445.931 625.93 440.948 620.947 440.948 614.8 440.948 608.653 445.931 603.67 452.078 603.67ZM452.477 615.496 447.793 623.515C449.117 624.253 450.591 624.464 452.078 624.539 457.053 624.448 461.523 620.6 461.782 615.496ZM446.287 607.012C443.677 608.748 442.491 611.784 442.339 614.8 442.382 618.031 443.92 620.989 446.6 622.799L451.263 614.816ZM452.078 605.061C450.411 604.986 448.937 605.602 447.441 606.234L452.459 614.104 461.782 614.104C461.547 608.88 457.029 605.311 452.078 605.061ZM447.268 599.528 447.808 601.543 449.152 601.183 448.612 599.167 447.267 599.528ZM443.478 601.291 444.521 603.1 445.726 602.404 444.683 600.595ZM440.273 603.979 441.748 605.454 442.732 604.47 441.257 602.995 440.273 603.978ZM437.873 607.402 439.682 608.446 440.378 607.241 438.569 606.198ZM436.443 611.333 438.459 611.872 438.819 610.529 436.804 609.987 436.443 611.331ZM436.078 615.496 438.165 615.496 438.165 614.104 436.078 614.104ZM436.806 619.613 438.82 619.073 438.46 617.729 436.444 618.269 436.804 619.614ZM438.568 623.402 440.377 622.358 439.681 621.153 437.873 622.197ZM441.257 626.604 442.732 625.129 441.748 624.146 440.273 625.621 441.256 626.605ZM444.68 629.005 445.724 627.196 444.519 626.5 443.476 628.309ZM448.611 630.435 449.15 628.419 447.807 628.059 447.265 630.074 448.609 630.435ZM452.774 630.8 452.774 628.713 451.382 628.713 451.382 630.8ZM456.888 630.072 456.348 628.057 455.004 628.417 455.544 630.433 456.889 630.072ZM460.678 628.309 459.635 626.5 458.43 627.196 459.473 629.005ZM463.88 625.623 462.406 624.148 461.423 625.131 462.897 626.606 463.883 625.622ZM466.283 622.198 464.474 621.154 463.778 622.359 465.587 623.402ZM467.713 618.267 465.697 617.728 465.337 619.071 467.352 619.613 467.713 618.269ZM468.078 614.104 465.991 614.104 465.991 615.496 468.078 615.496ZM467.35 609.99 465.335 610.53 465.695 611.874 467.711 611.334 467.35 609.989ZM465.587 606.2 463.778 607.243 464.474 608.448 466.283 607.405ZM462.901 602.998 461.426 604.472 462.409 605.455 463.884 603.981 462.9 602.995ZM459.476 600.595 458.432 602.404 459.637 603.1 460.68 601.291ZM455.545 599.165 455.006 601.181 456.349 601.541 456.891 599.526 455.547 599.165ZM451.382 598.8 451.382 600.887 452.774 600.887 452.774 598.8ZM452.078 628.713C459.762 628.713 465.991 622.484 465.991 614.8 465.991 607.116 459.762 600.887 452.078 600.887 444.394 600.887 438.165 607.116 438.165 614.8 438.165 622.484 444.394 628.713 452.078 628.713ZM452.078 627.322C445.163 627.322 439.556 621.715 439.556 614.8 439.556 607.885 445.163 602.278 452.078 602.278 458.993 602.278 464.6 607.885 464.6 614.8 464.6 621.715 458.993 627.322 452.078 627.322Z" fill="#ff914d"/><path d="M 898.356 617.2979 L 898.356 619.3791 L 912.1163 619.3776 L 912.1155 610.45265 L 904.6057 610.4557 L 904.6057 612.4641 L 899.1023 612.4641 L 899.1023 611.7899 L 899.1023 606.9599 L 904.6057 606.9599 L 904.6057 609.1064 L 912.4252 609.1042 C 912.4898 609.10414 912.549 609.12364 912.6083 609.1409 C 912.6675 609.12364 912.726 609.10414 912.7905 609.1042 C 913.1633 609.10414 913.4648 609.4064 913.4648 609.7784 L 913.4655 619.3769 L 927.852 619.3754 L 927.8512 610.3851 L 922.1258 610.3866 L 922.1258 612.4619 L 916.6223 612.4619 L 916.6223 611.7877 L 916.6223 606.9576 L 922.1258 606.9576 L 922.1258 609.0366 L 927.8505 609.0351 L 927.8498 599.9489 L 920.3401 599.95116 L 920.3401 601.79616 L 914.8365 601.79616 L 914.8365 601.12116 L 914.8365 596.2926 L 920.3401 596.2926 L 920.3401 598.6034 L 928.1595 598.6004 C 928.224 598.6004 928.2833 598.6199 928.3425 598.63716 C 928.4018 598.6199 928.4603 598.6004 928.5248 598.6004 C 928.8968 598.6004 929.199 598.90264 929.199 599.2754 L 929.1998 609.0359 L 935.37 609.0344 L 935.37 606.9584 L 940.8735 606.9584 L 940.8735 612.4619 L 935.37 612.4619 L 935.37 611.7877 L 935.37 610.3829 L 929.1998 610.3844 L 929.2005 620.0489 C 929.2005 620.42164 928.8983 620.7239 928.5262 620.7239 L 913.4648 620.7254 L 913.4655 630.5519 C 913.4655 630.9239 913.1633 631.22614 912.7913 631.2269 L 904.605 631.2291 L 904.605 633.3074 L 899.1015 633.3074 L 899.1015 632.6324 L 899.1015 627.8039 L 904.605 627.8039 L 904.605 629.8799 L 912.1163 629.8777 L 912.1155 620.7254 L 898.3553 620.7269 L 898.3553 622.80065 L 892.8517 622.80065 L 892.8517 622.12565 L 892.8517 617.2971 L 898.356 617.2971 L 898.356 617.2979 Z" fill="#b9bfc1"/><text transform="translate(834.673 596.376)" fill="#235e00">
          <tspan font-family="Text,Helvetica,sans-serif" font-size="12" x="0" y="11">upload</tspan>
        </text><text transform="translate(879.883 648.121)" fill="#235e00">
          <tspan font-family="Text,Helvetica,sans-serif" font-size="12" x="0" y="11">save</tspan>
        </text><path d="M 877.4964 668.6764 L 911.6687 668.45065 L 914.8 668.45065 L 914.8 644.0916" marker-start="url(#a)" stroke="#666a6b" stroke-linecap="square" stroke-linejoin="bevel" stroke-width="2"/><path marker-start="url(#a)" stroke="#666a6b" stroke-linecap="square" stroke-linejoin="bevel" stroke-width="2" d="M799.44 614.376 885.725 614.376"/><path marker-start="url(#a)" stroke="#666a6b" stroke-linecap="square" stroke-linejoin="bevel" stroke-width="2" d="M721.01 614.376 746.957 614.376"/><path d="M 609.61325 603.669 C 615.37725 603.773 620.41125 608.232 620.70825 614.104 L 620.74325 614.104 L 620.74325 615.496 L 620.70825 615.496 C 620.46325 621.509 615.33025 625.642 609.61325 625.93 C 603.46625 625.93 598.48325 620.947 598.48325 614.8 C 598.48325 608.653 603.46625 603.67 609.61325 603.67 Z M 610.01225 615.496 L 605.32825 623.515 C 606.65225 624.253 608.12625 624.464 609.61325 624.539 C 614.58825 624.448 619.05825 620.6 619.31725 615.496 Z M 603.82225 607.012 C 601.21225 608.748 600.02625 611.784 599.87425 614.8 C 599.91725 618.031 601.45525 620.989 604.13525 622.799 L 608.79825 614.816 Z M 609.61325 605.061 C 607.94625 604.986 606.47225 605.602 604.97625 606.234 L 609.99425 614.104 L 619.31725 614.104 C 619.08225 608.88 614.56425 605.311 609.61325 605.061 Z M 604.80325 599.528 L 605.34325 601.543 L 606.68725 601.183 L 606.14725 599.167 L 604.80225 599.528 Z M 601.01325 601.291 L 602.05625 603.1 L 603.26125 602.404 L 602.21825 600.595 Z M 597.80825 603.979 L 599.28325 605.454 L 600.26725 604.47 L 598.79225 602.995 L 597.80825 603.978 Z M 595.40825 607.402 L 597.21725 608.446 L 597.91325 607.241 L 596.10425 606.198 Z M 593.97825 611.333 L 595.99425 611.872 L 596.35425 610.529 L 594.33925 609.987 L 593.97825 611.331 Z M 593.61325 615.496 L 595.70025 615.496 L 595.70025 614.104 L 593.61325 614.104 Z M 594.34125 619.613 L 596.35525 619.073 L 595.99525 617.729 L 593.97925 618.269 L 594.33925 619.614 Z M 596.10325 623.402 L 597.91225 622.358 L 597.21625 621.153 L 595.40825 622.197 Z M 598.79225 626.604 L 600.26725 625.129 L 599.28325 624.146 L 597.80825 625.621 L 598.79125 626.605 Z M 602.21525 629.005 L 603.25925 627.196 L 602.05425 626.5 L 601.01125 628.309 Z M 606.14625 630.435 L 606.68525 628.419 L 605.34225 628.059 L 604.80025 630.074 L 606.14425 630.435 Z M 610.30925 630.8 L 610.30925 628.713 L 608.91725 628.713 L 608.91725 630.8 Z M 614.42325 630.072 L 613.88325 628.057 L 612.53925 628.417 L 613.07925 630.433 L 614.42425 630.072 Z M 618.21325 628.309 L 617.17025 626.5 L 615.96525 627.196 L 617.00825 629.005 Z M 621.41525 625.623 L 619.94125 624.148 L 618.95825 625.131 L 620.43225 626.606 L 621.41825 625.622 Z M 623.81825 622.198 L 622.00925 621.154 L 621.31325 622.359 L 623.12225 623.402 Z M 625.24825 618.267 L 623.23225 617.728 L 622.87225 619.071 L 624.88725 619.613 L 625.24825 618.269 Z M 625.61325 614.104 L 623.52625 614.104 L 623.52625 615.496 L 625.61325 615.496 Z M 624.88525 609.99 L 622.87025 610.53 L 623.23025 611.874 L 625.24625 611.334 L 624.88525 609.989 Z M 623.12225 606.2 L 621.31325 607.243 L 622.00925 608.448 L 623.81825 607.405 Z M 620.43625 602.998 L 618.96125 604.472 L 619.94425 605.455 L 621.41925 603.981 L 620.43525 602.995 Z M 617.01125 600.595 L 615.96725 602.404 L 617.17225 603.1 L 618.21525 601.291 Z M 613.08025 599.165 L 612.54125 601.181 L 613.88425 601.541 L 614.42625 599.526 L 613.08225 599.165 Z M 608.91725 598.8 L 608.91725 600.887 L 610.30925 600.887 L 610.30925 598.8 Z M 609.61325 628.713 C 617.29725 628.713 623.52625 622.484 623.52625 614.8 C 623.52625 607.116 617.29725 600.887 609.61325 600.887 C 601.92925 600.887 595.70025 607.116 595.70025 614.8 C 595.70025 622.484 601.92925 628.713 609.61325 628.713 Z M 609.61325 627.322 C 602.69825 627.322 597.09125 621.715 597.09125 614.8 C 597.09125 607.885 602.69825 602.278 609.61325 602.278 C 616.52825 602.278 622.13525 607.885 622.13525 614.8 C 622.13525 621.715 616.52825 627.322 609.61325 627.322 Z" fill="#68bc36"/><path marker-start="url(#a)" stroke="#666a6b" stroke-linecap="square" stroke-linejoin="bevel" stroke-width="2" d="M641.81 614.376 667.757 614.376"/><path stroke="#666" stroke-linejoin="round" d="M582.2 575.842 582.2 581.842"/><path marker-start="url(#a)" stroke="#666a6b" stroke-linecap="square" stroke-linejoin="bevel" stroke-width="2" d="M562.61 614.3 588.557 614.3"/><path marker-start="url(#a)" stroke="#666a6b" stroke-linecap="square" stroke-linejoin="bevel" stroke-width="2" d="M484.274 614.3 510.221 614.3"/><path marker-start="url(#a)" stroke="#666a6b" stroke-linecap="square" stroke-linejoin="bevel" stroke-width="2" d="M405.074 614.3 431.021 614.3"/><path d="M 768.8701 644.44675 L 769.1201 667.62415 L 769.1201 668.25 L 825.3868 668.25" marker-start="url(#a)" stroke="#666a6b" stroke-linecap="square" stroke-linejoin="bevel" stroke-width="2"/><text transform="translate(781.778 648.121)" fill="#235e00">
          <tspan font-family="Text,Helvetica,sans-serif" font-size="12" x="0" y="11">upload</tspan>
        </text><path d="M 958.5915 439.154 C 958.7829 439.154 958.948 439.08734 959.087 438.954 C 959.2204 438.815 959.287 438.64984 959.287 438.4585 L 959.287 437.554 C 959.287 437.09034 959.429 436.69617 959.713 436.3715 C 959.997 436.04684 960.342 435.8845 960.748 435.8845 L 960.748 436.441 C 960.516 436.441 960.3189 436.54834 960.1565 436.763 C 959.9942 436.983 959.913 437.24667 959.913 437.554 L 959.913 438.4585 C 959.913 438.6615 959.855 438.847 959.739 439.015 C 959.623 439.17734 959.4724 439.29334 959.287 439.363 C 959.4724 439.43234 959.623 439.54817 959.739 439.7105 C 959.855 439.87884 959.913 440.06434 959.913 440.267 L 959.913 441.1715 C 959.913 441.47884 959.9942 441.74267 960.1565 441.963 C 960.3189 442.17734 960.516 442.2845 960.748 442.2845 L 960.748 442.841 C 960.342 442.841 959.997 442.67867 959.713 442.354 C 959.429 442.02934 959.287 441.63517 959.287 441.1715 L 959.287 440.267 C 959.287 440.07567 959.2204 439.9105 959.087 439.7715 C 958.948 439.63817 958.7829 439.5715 958.5915 439.5715 Z M 963.8085 439.154 C 963.6172 439.154 963.452 439.08734 963.313 438.954 C 963.1797 438.815 963.113 438.64984 963.113 438.4585 L 963.113 437.554 C 963.113 437.09034 962.971 436.69617 962.687 436.3715 C 962.403 436.04684 962.058 435.8845 961.652 435.8845 L 961.652 436.441 C 961.884 436.441 962.0812 436.54834 962.2435 436.763 C 962.4059 436.983 962.487 437.24667 962.487 437.554 L 962.487 438.4585 C 962.487 438.64984 962.5509 438.8295 962.6785 438.9975 C 962.8002 439.15984 962.9654 439.27867 963.174 439.354 C 962.9654 439.42934 962.8002 439.55117 962.6785 439.7195 C 962.5509 439.8875 962.487 440.07 962.487 440.267 L 962.487 441.1715 C 962.487 441.47884 962.4059 441.74267 962.2435 441.963 C 962.0812 442.17734 961.884 442.2845 961.652 442.2845 L 961.652 442.841 C 962.058 442.841 962.403 442.67867 962.687 442.354 C 962.971 442.02934 963.113 441.63517 963.113 441.1715 L 963.113 440.267 C 963.113 440.07567 963.1797 439.9105 963.313 439.7715 C 963.452 439.63817 963.6172 439.5715 963.8085 439.5715 Z M 963.95 431.95 L 963.95 433.2 L 965.2 433.2 Z M 956.2 431.2 L 956.2 445.2 L 966.2 445.2 L 966.2 434.2 L 962.95 434.2 L 962.95 431.2 Z M 955.2 430.2 L 955.8155 430.2 L 963.7 430.2 L 967.2 433.7 L 967.2 446.2 L 955.2 446.2 L 955.2 430.8155 Z" fill="#00f"/><path d="M 731.3915 602.3298 C 731.58284 602.3298 731.748 602.26316 731.887 602.1298 C 732.02034 601.9908 732.087 601.82566 732.087 601.6343 L 732.087 600.7298 C 732.087 600.26616 732.229 599.872 732.513 599.5473 C 732.797 599.22266 733.142 599.0603 733.548 599.0603 L 733.548 599.6168 C 733.316 599.6168 733.11884 599.72416 732.9565 599.9388 C 732.7942 600.1588 732.713 600.4225 732.713 600.7298 L 732.713 601.6343 C 732.713 601.8373 732.655 602.0228 732.539 602.1908 C 732.423 602.35316 732.27234 602.46916 732.087 602.5388 C 732.27234 602.60816 732.423 602.724 732.539 602.8863 C 732.655 603.05466 732.713 603.24016 732.713 603.4428 L 732.713 604.3473 C 732.713 604.65466 732.7942 604.9185 732.9565 605.1388 C 733.11884 605.35316 733.316 605.4603 733.548 605.4603 L 733.548 606.0168 C 733.142 606.0168 732.797 605.8545 732.513 605.5298 C 732.229 605.20516 732.087 604.811 732.087 604.3473 L 732.087 603.4428 C 732.087 603.2515 732.02034 603.0863 731.887 602.9473 C 731.748 602.814 731.58284 602.7473 731.3915 602.7473 Z M 736.6085 602.3298 C 736.4172 602.3298 736.252 602.26316 736.113 602.1298 C 735.9797 601.9908 735.913 601.82566 735.913 601.6343 L 735.913 600.7298 C 735.913 600.26616 735.771 599.872 735.487 599.5473 C 735.203 599.22266 734.858 599.0603 734.452 599.0603 L 734.452 599.6168 C 734.684 599.6168 734.8812 599.72416 735.0435 599.9388 C 735.20584 600.1588 735.287 600.4225 735.287 600.7298 L 735.287 601.6343 C 735.287 601.82566 735.35084 602.0053 735.4785 602.1733 C 735.6002 602.33566 735.76534 602.4545 735.974 602.5298 C 735.76534 602.60516 735.6002 602.727 735.4785 602.8953 C 735.35084 603.0633 735.287 603.2458 735.287 603.4428 L 735.287 604.3473 C 735.287 604.65466 735.20584 604.9185 735.0435 605.1388 C 734.8812 605.35316 734.684 605.4603 734.452 605.4603 L 734.452 606.0168 C 734.858 606.0168 735.203 605.8545 735.487 605.5298 C 735.771 605.20516 735.913 604.811 735.913 604.3473 L 735.913 603.4428 C 735.913 603.2515 735.9797 603.0863 736.113 602.9473 C 736.252 602.814 736.4172 602.7473 736.6085 602.7473 Z M 736.75 595.1258 L 736.75 596.3758 L 738 596.3758 Z M 729 594.3758 L 729 608.3758 L 739 608.3758 L 739 597.3758 L 735.75 597.3758 L 735.75 594.3758 Z M 728 593.3758 L 728.6155 593.3758 L 736.5 593.3758 L 740 596.8758 L 740 609.3758 L 728 609.3758 L 728 593.9913 Z" fill="#008f00"/><path d="M752.392 656.617C752.583 656.617 752.748 656.55 752.887 656.417 753.02 656.278 753.087 656.113 753.087 655.922L753.087 655.017C753.087 654.553 753.229 654.159 753.513 653.835 753.797 653.51 754.142 653.348 754.548 653.348L754.548 653.904C754.316 653.904 754.119 654.011 753.957 654.226 753.794 654.446 753.713 654.71 753.713 655.017L753.713 655.922C753.713 656.125 753.655 656.31 753.539 656.478 753.423 656.64 753.272 656.756 753.087 656.826 753.272 656.895 753.423 657.011 753.539 657.174 753.655 657.342 753.713 657.527 753.713 657.73L753.713 658.635C753.713 658.942 753.794 659.206 753.957 659.426 754.119 659.64 754.316 659.748 754.548 659.748L754.548 660.304C754.142 660.304 753.797 660.142 753.513 659.817 753.229 659.492 753.087 659.098 753.087 658.635L753.087 657.73C753.087 657.539 753.02 657.374 752.887 657.235 752.748 657.101 752.583 657.035 752.392 657.035ZM757.609 656.617C757.417 656.617 757.252 656.55 757.113 656.417 756.98 656.278 756.913 656.113 756.913 655.922L756.913 655.017C756.913 654.553 756.771 654.159 756.487 653.835 756.203 653.51 755.858 653.348 755.452 653.348L755.452 653.904C755.684 653.904 755.881 654.011 756.044 654.226 756.206 654.446 756.287 654.71 756.287 655.017L756.287 655.922C756.287 656.113 756.351 656.293 756.479 656.461 756.6 656.623 756.765 656.742 756.974 656.817 756.765 656.892 756.6 657.014 756.479 657.183 756.351 657.351 756.287 657.533 756.287 657.73L756.287 658.635C756.287 658.942 756.206 659.206 756.044 659.426 755.881 659.64 755.684 659.748 755.452 659.748L755.452 660.304C755.858 660.304 756.203 660.142 756.487 659.817 756.771 659.492 756.913 659.098 756.913 658.635L756.913 657.73C756.913 657.539 756.98 657.374 757.113 657.235 757.252 657.101 757.417 657.035 757.609 657.035ZM757.75 649.413 757.75 650.663 759 650.663ZM750 648.663 750 662.663 760 662.663 760 651.663 756.75 651.663 756.75 648.663ZM749 647.663 749.616 647.663 757.5 647.663 761 651.163 761 663.663 749 663.663 749 648.279ZM810.992 602.33C811.183 602.33 811.348 602.263 811.487 602.13 811.62 601.991 811.687 601.826 811.687 601.634L811.687 600.73C811.687 600.266 811.829 599.872 812.113 599.547 812.397 599.223 812.742 599.06 813.148 599.06L813.148 599.617C812.916 599.617 812.719 599.724 812.557 599.939 812.394 600.159 812.313 600.423 812.313 600.73L812.313 601.634C812.313 601.837 812.255 602.023 812.139 602.191 812.023 602.353 811.872 602.469 811.687 602.539 811.872 602.608 812.023 602.724 812.139 602.886 812.255 603.055 812.313 603.24 812.313 603.443L812.313 604.347C812.313 604.655 812.394 604.919 812.557 605.139 812.719 605.353 812.916 605.46 813.148 605.46L813.148 606.017C812.742 606.017 812.397 605.855 812.113 605.53 811.829 605.205 811.687 604.811 811.687 604.347L811.687 603.443C811.687 603.252 811.62 603.086 811.487 602.947 811.348 602.814 811.183 602.747 810.992 602.747ZM816.209 602.33C816.017 602.33 815.852 602.263 815.713 602.13 815.58 601.991 815.513 601.826 815.513 601.634L815.513 600.73C815.513 600.266 815.371 599.872 815.087 599.547 814.803 599.223 814.458 599.06 814.052 599.06L814.052 599.617C814.284 599.617 814.481 599.724 814.644 599.939 814.806 600.159 814.887 600.423 814.887 600.73L814.887 601.634C814.887 601.826 814.951 602.005 815.079 602.173 815.2 602.336 815.365 602.455 815.574 602.53 815.365 602.605 815.2 602.727 815.079 602.895 814.951 603.063 814.887 603.246 814.887 603.443L814.887 604.347C814.887 604.655 814.806 604.919 814.644 605.139 814.481 605.353 814.284 605.46 814.052 605.46L814.052 606.017C814.458 606.017 814.803 605.855 815.087 605.53 815.371 605.205 815.513 604.811 815.513 604.347L815.513 603.443C815.513 603.252 815.58 603.086 815.713 602.947 815.852 602.814 816.017 602.747 816.209 602.747ZM816.35 595.126 816.35 596.376 817.6 596.376ZM808.6 594.376 808.6 608.376 818.6 608.376 818.6 597.376 815.35 597.376 815.35 594.376ZM807.6 593.376 808.216 593.376 816.1 593.376 819.6 596.876 819.6 609.376 807.6 609.376 807.6 593.991Z" fill="#00f"/><path d="M 652.4048 602.3298 C 652.5961 602.3298 652.7613 602.26316 652.9003 602.1298 C 653.0336 601.9908 653.1003 601.82566 653.1003 601.6343 L 653.1003 600.7298 C 653.1003 600.26616 653.2423 599.872 653.5263 599.5473 C 653.8103 599.22266 654.1553 599.0603 654.5613 599.0603 L 654.5613 599.6168 C 654.3293 599.6168 654.1321 599.72416 653.9698 599.9388 C 653.8074 600.1588 653.7263 600.4225 653.7263 600.7298 L 653.7263 601.6343 C 653.7263 601.8373 653.6683 602.0228 653.5523 602.1908 C 653.4363 602.35316 653.2856 602.46916 653.1003 602.5388 C 653.2856 602.60816 653.4363 602.724 653.5523 602.8863 C 653.6683 603.05466 653.7263 603.24016 653.7263 603.4428 L 653.7263 604.3473 C 653.7263 604.65466 653.8074 604.9185 653.9698 605.1388 C 654.1321 605.35316 654.3293 605.4603 654.5613 605.4603 L 654.5613 606.0168 C 654.1553 606.0168 653.8103 605.8545 653.5263 605.5298 C 653.2423 605.20516 653.1003 604.811 653.1003 604.3473 L 653.1003 603.4428 C 653.1003 603.2515 653.0336 603.0863 652.9003 602.9473 C 652.7613 602.814 652.5961 602.7473 652.4048 602.7473 Z M 657.6218 602.3298 C 657.4304 602.3298 657.2653 602.26316 657.1263 602.1298 C 656.9929 601.9908 656.9263 601.82566 656.9263 601.6343 L 656.9263 600.7298 C 656.9263 600.26616 656.7843 599.872 656.5003 599.5473 C 656.2163 599.22266 655.8713 599.0603 655.4653 599.0603 L 655.4653 599.6168 C 655.6973 599.6168 655.8944 599.72416 656.0568 599.9388 C 656.2191 600.1588 656.3003 600.4225 656.3003 600.7298 L 656.3003 601.6343 C 656.3003 601.82566 656.3641 602.0053 656.4918 602.1733 C 656.6134 602.33566 656.7786 602.4545 656.9873 602.5298 C 656.7786 602.60516 656.6134 602.727 656.4918 602.8953 C 656.3641 603.0633 656.3003 603.2458 656.3003 603.4428 L 656.3003 604.3473 C 656.3003 604.65466 656.2191 604.9185 656.0568 605.1388 C 655.8944 605.35316 655.6973 605.4603 655.4653 605.4603 L 655.4653 606.0168 C 655.8713 606.0168 656.2163 605.8545 656.5003 605.5298 C 656.7843 605.20516 656.9263 604.811 656.9263 604.3473 L 656.9263 603.4428 C 656.9263 603.2515 656.9929 603.0863 657.1263 602.9473 C 657.2653 602.814 657.4304 602.7473 657.6218 602.7473 Z M 657.7633 595.1258 L 657.7633 596.3758 L 659.0133 596.3758 Z M 650.0133 594.3758 L 650.0133 608.3758 L 660.0133 608.3758 L 660.0133 597.3758 L 656.7633 597.3758 L 656.7633 594.3758 Z M 649.0133 593.3758 L 649.6288 593.3758 L 657.5133 593.3758 L 661.0133 596.8758 L 661.0133 609.3758 L 649.0133 609.3758 L 649.0133 593.9913 Z" fill="#ff2f92"/><path d="M 571.3915 602.3298 C 571.58284 602.3298 571.748 602.26316 571.887 602.1298 C 572.02034 601.9908 572.087 601.82566 572.087 601.6343 L 572.087 600.7298 C 572.087 600.26616 572.229 599.872 572.513 599.5473 C 572.797 599.22266 573.142 599.0603 573.548 599.0603 L 573.548 599.6168 C 573.316 599.6168 573.11884 599.72416 572.9565 599.9388 C 572.7942 600.1588 572.713 600.4225 572.713 600.7298 L 572.713 601.6343 C 572.713 601.8373 572.655 602.0228 572.539 602.1908 C 572.423 602.35316 572.27234 602.46916 572.087 602.5388 C 572.27234 602.60816 572.423 602.724 572.539 602.8863 C 572.655 603.05466 572.713 603.24016 572.713 603.4428 L 572.713 604.3473 C 572.713 604.65466 572.7942 604.9185 572.9565 605.1388 C 573.11884 605.35316 573.316 605.4603 573.548 605.4603 L 573.548 606.0168 C 573.142 606.0168 572.797 605.8545 572.513 605.5298 C 572.229 605.20516 572.087 604.811 572.087 604.3473 L 572.087 603.4428 C 572.087 603.2515 572.02034 603.0863 571.887 602.9473 C 571.748 602.814 571.58284 602.7473 571.3915 602.7473 Z M 576.6085 602.3298 C 576.4172 602.3298 576.252 602.26316 576.113 602.1298 C 575.9797 601.9908 575.913 601.82566 575.913 601.6343 L 575.913 600.7298 C 575.913 600.26616 575.771 599.872 575.487 599.5473 C 575.203 599.22266 574.858 599.0603 574.452 599.0603 L 574.452 599.6168 C 574.684 599.6168 574.8812 599.72416 575.0435 599.9388 C 575.20584 600.1588 575.287 600.4225 575.287 600.7298 L 575.287 601.6343 C 575.287 601.82566 575.35084 602.0053 575.4785 602.1733 C 575.6002 602.33566 575.76534 602.4545 575.974 602.5298 C 575.76534 602.60516 575.6002 602.727 575.4785 602.8953 C 575.35084 603.0633 575.287 603.2458 575.287 603.4428 L 575.287 604.3473 C 575.287 604.65466 575.20584 604.9185 575.0435 605.1388 C 574.8812 605.35316 574.684 605.4603 574.452 605.4603 L 574.452 606.0168 C 574.858 606.0168 575.203 605.8545 575.487 605.5298 C 575.771 605.20516 575.913 604.811 575.913 604.3473 L 575.913 603.4428 C 575.913 603.2515 575.9797 603.0863 576.113 602.9473 C 576.252 602.814 576.4172 602.7473 576.6085 602.7473 Z M 576.75 595.1258 L 576.75 596.3758 L 578 596.3758 Z M 569 594.3758 L 569 608.3758 L 579 608.3758 L 579 597.3758 L 575.75 597.3758 L 575.75 594.3758 Z M 568 593.3758 L 568.6155 593.3758 L 576.5 593.3758 L 580 596.8758 L 580 609.3758 L 568 609.3758 L 568 593.9913 Z" fill="#521b93"/><path d="M 495.5915 602.3298 C 495.78284 602.3298 495.948 602.26316 496.087 602.1298 C 496.22034 601.9908 496.287 601.82566 496.287 601.6343 L 496.287 600.7298 C 496.287 600.26616 496.429 599.872 496.713 599.5473 C 496.997 599.22266 497.342 599.0603 497.748 599.0603 L 497.748 599.6168 C 497.516 599.6168 497.31884 599.72416 497.1565 599.9388 C 496.9942 600.1588 496.913 600.4225 496.913 600.7298 L 496.913 601.6343 C 496.913 601.8373 496.855 602.0228 496.739 602.1908 C 496.623 602.35316 496.47234 602.46916 496.287 602.5388 C 496.47234 602.60816 496.623 602.724 496.739 602.8863 C 496.855 603.05466 496.913 603.24016 496.913 603.4428 L 496.913 604.3473 C 496.913 604.65466 496.9942 604.9185 497.1565 605.1388 C 497.31884 605.35316 497.516 605.4603 497.748 605.4603 L 497.748 606.0168 C 497.342 606.0168 496.997 605.8545 496.713 605.5298 C 496.429 605.20516 496.287 604.811 496.287 604.3473 L 496.287 603.4428 C 496.287 603.2515 496.22034 603.0863 496.087 602.9473 C 495.948 602.814 495.78284 602.7473 495.5915 602.7473 Z M 500.8085 602.3298 C 500.6172 602.3298 500.452 602.26316 500.313 602.1298 C 500.1797 601.9908 500.113 601.82566 500.113 601.6343 L 500.113 600.7298 C 500.113 600.26616 499.971 599.872 499.687 599.5473 C 499.403 599.22266 499.058 599.0603 498.652 599.0603 L 498.652 599.6168 C 498.884 599.6168 499.0812 599.72416 499.2435 599.9388 C 499.40584 600.1588 499.487 600.4225 499.487 600.7298 L 499.487 601.6343 C 499.487 601.82566 499.55084 602.0053 499.6785 602.1733 C 499.8002 602.33566 499.96534 602.4545 500.174 602.5298 C 499.96534 602.60516 499.8002 602.727 499.6785 602.8953 C 499.55084 603.0633 499.487 603.2458 499.487 603.4428 L 499.487 604.3473 C 499.487 604.65466 499.40584 604.9185 499.2435 605.1388 C 499.0812 605.35316 498.884 605.4603 498.652 605.4603 L 498.652 606.0168 C 499.058 606.0168 499.403 605.8545 499.687 605.5298 C 499.971 605.20516 500.113 604.811 500.113 604.3473 L 500.113 603.4428 C 500.113 603.2515 500.1797 603.0863 500.313 602.9473 C 500.452 602.814 500.6172 602.7473 500.8085 602.7473 Z M 500.95 595.1258 L 500.95 596.3758 L 502.2 596.3758 Z M 493.2 594.3758 L 493.2 608.3758 L 503.2 608.3758 L 503.2 597.3758 L 499.95 597.3758 L 499.95 594.3758 Z M 492.2 593.3758 L 492.8155 593.3758 L 500.7 593.3758 L 504.2 596.8758 L 504.2 609.3758 L 492.2 609.3758 L 492.2 593.9913 Z" fill="#929000"/><path d="M 414.1915 602.2614 C 414.38284 602.2614 414.548 602.1947 414.687 602.0614 C 414.82034 601.9224 414.887 601.7572 414.887 601.5659 L 414.887 600.6614 C 414.887 600.1977 415.029 599.80356 415.313 599.4789 C 415.597 599.1542 415.942 598.9919 416.348 598.9919 L 416.348 599.5484 C 416.116 599.5484 415.91884 599.6557 415.7565 599.8704 C 415.59417 600.0904 415.513 600.35406 415.513 600.6614 L 415.513 601.5659 C 415.513 601.7689 415.455 601.9544 415.339 602.1224 C 415.223 602.2847 415.07234 602.4007 414.887 602.4704 C 415.07234 602.5397 415.223 602.65556 415.339 602.8179 C 415.455 602.9862 415.513 603.1717 415.513 603.3744 L 415.513 604.2789 C 415.513 604.5862 415.59417 604.85006 415.7565 605.0704 C 415.91884 605.2847 416.116 605.3919 416.348 605.3919 L 416.348 605.9484 C 415.942 605.9484 415.597 605.78606 415.313 605.4614 C 415.029 605.1367 414.887 604.74256 414.887 604.2789 L 414.887 603.3744 C 414.887 603.18306 414.82034 603.0179 414.687 602.8789 C 414.548 602.74556 414.38284 602.6789 414.1915 602.6789 Z M 419.4085 602.2614 C 419.21717 602.2614 419.052 602.1947 418.913 602.0614 C 418.77967 601.9224 418.713 601.7572 418.713 601.5659 L 418.713 600.6614 C 418.713 600.1977 418.571 599.80356 418.287 599.4789 C 418.003 599.1542 417.658 598.9919 417.252 598.9919 L 417.252 599.5484 C 417.484 599.5484 417.68117 599.6557 417.8435 599.8704 C 418.00584 600.0904 418.087 600.35406 418.087 600.6614 L 418.087 601.5659 C 418.087 601.7572 418.15084 601.9369 418.2785 602.1049 C 418.40017 602.2672 418.56534 602.38606 418.774 602.4614 C 418.56534 602.5367 418.40017 602.65856 418.2785 602.8269 C 418.15084 602.9949 418.087 603.1774 418.087 603.3744 L 418.087 604.2789 C 418.087 604.5862 418.00584 604.85006 417.8435 605.0704 C 417.68117 605.2847 417.484 605.3919 417.252 605.3919 L 417.252 605.9484 C 417.658 605.9484 418.003 605.78606 418.287 605.4614 C 418.571 605.1367 418.713 604.74256 418.713 604.2789 L 418.713 603.3744 C 418.713 603.18306 418.77967 603.0179 418.913 602.8789 C 419.052 602.74556 419.21717 602.6789 419.4085 602.6789 Z M 419.55 595.0574 L 419.55 596.3074 L 420.8 596.3074 Z M 411.8 594.3074 L 411.8 608.3074 L 421.8 608.3074 L 421.8 597.3074 L 418.55 597.3074 L 418.55 594.3074 Z M 410.8 593.3074 L 411.4155 593.3074 L 419.3 593.3074 L 422.8 596.8074 L 422.8 609.3074 L 410.8 609.3074 L 410.8 593.9229 Z" fill="#009193"/></g></svg>