<svg xmlns="http://www.w3.org/2000/svg" viewBox="522.434 414.878 480.316 147.459" width="480.316" height="147.459"><defs><marker orient="auto" overflow="visible" markerUnits="strokeWidth" id="a" stroke-linejoin="miter" stroke-miterlimit="10" viewBox="-6 -4 7 8" markerWidth="7" markerHeight="8" color="#666a6b"><path d="M -4.32 0 L 0 2.52 L 0 -2.52 Z" fill="none" stroke="currentColor"/></marker><marker orient="auto" overflow="visible" markerUnits="strokeWidth" id="b" stroke-linejoin="miter" stroke-miterlimit="10" viewBox="-1 -4 10 8" markerWidth="10" markerHeight="8" color="#000"><path d="M 8 0 L 0 -3 L 0 3 Z" fill="currentColor" stroke="currentColor"/></marker><marker orient="auto" overflow="visible" markerUnits="strokeWidth" id="c" stroke-linejoin="miter" stroke-miterlimit="10" viewBox="-6 -3 7 6" markerWidth="7" markerHeight="6" color="#666a6b"><path d="M -4.32 0 L 0 0 M 0 1.62 L -4.32 0 L 0 -1.62" fill="none" stroke="currentColor"/></marker></defs><g fill="none"><text transform="translate(658.2 421.878)" fill="#235e00">
          <tspan font-family="Helvetica" font-size="12" x="1.771" y="11">process </tspan>
          <tspan font-family="Helvetica" font-size="12" x="1.815" y="25">1 datum</tspan>
        </text><path stroke="#666" stroke-linecap="round" stroke-linejoin="round" d="M607.517 430.6H647.517V470.6H607.517z"/><path d="M 622.6046 453.031 C 622.8916 453.031 623.13936 452.931 623.34786 452.731 C 623.54786 452.5225 623.64786 452.27476 623.64786 451.98776 L 623.64786 450.631 C 623.64786 449.9355 623.86086 449.34426 624.28686 448.85726 C 624.71286 448.37026 625.23036 448.12676 625.83936 448.12676 L 625.83936 448.9615 C 625.49136 448.9615 625.1956 449.1225 624.9521 449.4445 C 624.7086 449.7745 624.58686 450.17 624.58686 450.631 L 624.58686 451.98776 C 624.58686 452.29226 624.49986 452.5705 624.32586 452.8225 C 624.15186 453.066 623.92586 453.24 623.64786 453.3445 C 623.92586 453.4485 624.15186 453.62226 624.32586 453.86576 C 624.49986 454.11826 624.58686 454.3965 624.58686 454.7005 L 624.58686 456.05726 C 624.58686 456.51826 624.7086 456.914 624.9521 457.2445 C 625.1956 457.566 625.49136 457.72676 625.83936 457.72676 L 625.83936 458.5615 C 625.23036 458.5615 624.71286 458.318 624.28686 457.831 C 623.86086 457.344 623.64786 456.75276 623.64786 456.05726 L 623.64786 454.7005 C 623.64786 454.4135 623.54786 454.16576 623.34786 453.95726 C 623.13936 453.75726 622.8916 453.65726 622.6046 453.65726 Z M 630.4301 453.031 C 630.1431 453.031 629.89536 452.931 629.68686 452.731 C 629.48686 452.5225 629.38686 452.27476 629.38686 451.98776 L 629.38686 450.631 C 629.38686 449.9355 629.17386 449.34426 628.74786 448.85726 C 628.32186 448.37026 627.80436 448.12676 627.19536 448.12676 L 627.19536 448.9615 C 627.54336 448.9615 627.8391 449.1225 628.0826 449.4445 C 628.3261 449.7745 628.44786 450.17 628.44786 450.631 L 628.44786 451.98776 C 628.44786 452.27476 628.5436 452.54426 628.7351 452.79626 C 628.9176 453.03976 629.16536 453.218 629.47836 453.331 C 629.16536 453.444 628.9176 453.62676 628.7351 453.87926 C 628.5436 454.13126 628.44786 454.405 628.44786 454.7005 L 628.44786 456.05726 C 628.44786 456.51826 628.3261 456.914 628.0826 457.2445 C 627.8391 457.566 627.54336 457.72676 627.19536 457.72676 L 627.19536 458.5615 C 627.80436 458.5615 628.32186 458.318 628.74786 457.831 C 629.17386 457.344 629.38686 456.75276 629.38686 456.05726 L 629.38686 454.7005 C 629.38686 454.4135 629.48686 454.16576 629.68686 453.95726 C 629.89536 453.75726 630.1431 453.65726 630.4301 453.65726 Z M 630.64236 442.225 L 630.64236 444.1 L 632.51736 444.1 Z M 619.01736 441.1 L 619.01736 462.1 L 634.01736 462.1 L 634.01736 445.6 L 629.14236 445.6 L 629.14236 441.1 Z M 617.51736 439.6 L 618.4406 439.6 L 630.26736 439.6 L 635.51736 444.85 L 635.51736 463.6 L 617.51736 463.6 L 617.51736 440.52326 Z" fill="#000"/><path d="M 845.2 439.469 C 850.964 439.573 855.998 444.032 856.295 449.904 L 856.33 449.904 L 856.33 451.296 L 856.295 451.296 C 856.05 457.309 850.917 461.442 845.2 461.73 C 839.053 461.73 834.07 456.747 834.07 450.6 C 834.07 444.453 839.053 439.47 845.2 439.47 Z M 845.599 451.296 L 840.915 459.315 C 842.239 460.053 843.713 460.264 845.2 460.339 C 850.175 460.248 854.645 456.4 854.904 451.296 Z M 839.409 442.812 C 836.799 444.548 835.613 447.584 835.461 450.6 C 835.504 453.831 837.042 456.789 839.722 458.599 L 844.385 450.616 Z M 845.2 440.861 C 843.533 440.786 842.059 441.402 840.563 442.034 L 845.581 449.904 L 854.904 449.904 C 854.669 444.68 850.151 441.111 845.2 440.861 Z M 840.39 435.328 L 840.93 437.343 L 842.274 436.983 L 841.734 434.967 L 840.389 435.328 Z M 836.6 437.091 L 837.643 438.9 L 838.848 438.204 L 837.805 436.395 Z M 833.395 439.779 L 834.87 441.254 L 835.854 440.27 L 834.379 438.795 L 833.395 439.778 Z M 830.995 443.202 L 832.804 444.246 L 833.5 443.041 L 831.691 441.998 Z M 829.565 447.133 L 831.581 447.672 L 831.941 446.329 L 829.926 445.787 L 829.565 447.131 Z M 829.2 451.296 L 831.287 451.296 L 831.287 449.904 L 829.2 449.904 Z M 829.928 455.413 L 831.942 454.873 L 831.582 453.529 L 829.566 454.069 L 829.926 455.414 Z M 831.69 459.202 L 833.499 458.158 L 832.803 456.953 L 830.995 457.997 Z M 834.379 462.404 L 835.854 460.929 L 834.87 459.946 L 833.395 461.421 L 834.378 462.405 Z M 837.802 464.805 L 838.846 462.996 L 837.641 462.3 L 836.598 464.109 Z M 841.733 466.235 L 842.272 464.219 L 840.929 463.859 L 840.387 465.874 L 841.731 466.235 Z M 845.896 466.6 L 845.896 464.513 L 844.504 464.513 L 844.504 466.6 Z M 850.01 465.872 L 849.47 463.857 L 848.126 464.217 L 848.666 466.233 L 850.011 465.872 Z M 853.8 464.109 L 852.757 462.3 L 851.552 462.996 L 852.595 464.805 Z M 857.002 461.423 L 855.528 459.948 L 854.545 460.931 L 856.019 462.406 L 857.005 461.422 Z M 859.405 457.998 L 857.596 456.954 L 856.9 458.159 L 858.709 459.202 Z M 860.835 454.067 L 858.819 453.528 L 858.459 454.871 L 860.474 455.413 L 860.835 454.069 Z M 861.2 449.904 L 859.113 449.904 L 859.113 451.296 L 861.2 451.296 Z M 860.472 445.79 L 858.457 446.33 L 858.817 447.674 L 860.833 447.134 L 860.472 445.789 Z M 858.709 442 L 856.9 443.043 L 857.596 444.248 L 859.405 443.205 Z M 856.023 438.798 L 854.548 440.272 L 855.531 441.255 L 857.006 439.781 L 856.022 438.795 Z M 852.598 436.395 L 851.554 438.204 L 852.759 438.9 L 853.802 437.091 Z M 848.667 434.965 L 848.128 436.981 L 849.471 437.341 L 850.013 435.326 L 848.669 434.965 Z M 844.504 434.6 L 844.504 436.687 L 845.896 436.687 L 845.896 434.6 Z M 845.2 464.513 C 852.884 464.513 859.113 458.284 859.113 450.6 C 859.113 442.916 852.884 436.687 845.2 436.687 C 837.516 436.687 831.287 442.916 831.287 450.6 C 831.287 458.284 837.516 464.513 845.2 464.513 Z M 845.2 463.122 C 838.285 463.122 832.678 457.515 832.678 450.6 C 832.678 443.685 838.285 438.078 845.2 438.078 C 852.115 438.078 857.722 443.685 857.722 450.6 C 857.722 457.515 852.115 463.122 845.2 463.122 Z" fill="#3a8eed"/><path d="M 725.5915 437.554 C 725.7828 437.554 725.948 437.48734 726.087 437.354 C 726.2203 437.215 726.287 437.04984 726.287 436.8585 L 726.287 435.954 C 726.287 435.49034 726.429 435.09617 726.713 434.7715 C 726.997 434.44684 727.342 434.2845 727.748 434.2845 L 727.748 434.841 C 727.516 434.841 727.3188 434.94834 727.1565 435.163 C 726.9942 435.383 726.913 435.64667 726.913 435.954 L 726.913 436.8585 C 726.913 437.0615 726.855 437.247 726.739 437.415 C 726.623 437.57734 726.4723 437.69334 726.287 437.763 C 726.4723 437.83234 726.623 437.94817 726.739 438.1105 C 726.855 438.27884 726.913 438.46434 726.913 438.667 L 726.913 439.5715 C 726.913 439.87884 726.9942 440.14267 727.1565 440.363 C 727.3188 440.57734 727.516 440.6845 727.748 440.6845 L 727.748 441.241 C 727.342 441.241 726.997 441.07867 726.713 440.754 C 726.429 440.42934 726.287 440.03517 726.287 439.5715 L 726.287 438.667 C 726.287 438.47567 726.2203 438.3105 726.087 438.1715 C 725.948 438.03817 725.7828 437.9715 725.5915 437.9715 Z M 730.8085 437.554 C 730.6172 437.554 730.452 437.48734 730.313 437.354 C 730.1797 437.215 730.113 437.04984 730.113 436.8585 L 730.113 435.954 C 730.113 435.49034 729.971 435.09617 729.687 434.7715 C 729.403 434.44684 729.058 434.2845 728.652 434.2845 L 728.652 434.841 C 728.884 434.841 729.0812 434.94834 729.2435 435.163 C 729.4058 435.383 729.487 435.64667 729.487 435.954 L 729.487 436.8585 C 729.487 437.04984 729.5508 437.2295 729.6785 437.3975 C 729.8002 437.55984 729.9653 437.67867 730.174 437.754 C 729.9653 437.82934 729.8002 437.95117 729.6785 438.1195 C 729.5508 438.2875 729.487 438.47 729.487 438.667 L 729.487 439.5715 C 729.487 439.87884 729.4058 440.14267 729.2435 440.363 C 729.0812 440.57734 728.884 440.6845 728.652 440.6845 L 728.652 441.241 C 729.058 441.241 729.403 441.07867 729.687 440.754 C 729.971 440.42934 730.113 440.03517 730.113 439.5715 L 730.113 438.667 C 730.113 438.47567 730.1797 438.3105 730.313 438.1715 C 730.452 438.03817 730.6172 437.9715 730.8085 437.9715 Z M 730.95 430.35 L 730.95 431.6 L 732.2 431.6 Z M 723.2 429.6 L 723.2 443.6 L 733.2 443.6 L 733.2 432.6 L 729.95 432.6 L 729.95 429.6 Z M 722.2 428.6 L 722.8155 428.6 L 730.7 428.6 L 734.2 432.1 L 734.2 444.6 L 722.2 444.6 L 722.2 429.2155 Z" fill="#000"/><path d="M 877.5915 437.554 C 877.7829 437.554 877.948 437.48734 878.087 437.354 C 878.2204 437.215 878.287 437.04984 878.287 436.8585 L 878.287 435.954 C 878.287 435.49034 878.429 435.09617 878.713 434.7715 C 878.997 434.44684 879.342 434.2845 879.748 434.2845 L 879.748 434.841 C 879.516 434.841 879.3189 434.94834 879.1565 435.163 C 878.9942 435.383 878.913 435.64667 878.913 435.954 L 878.913 436.8585 C 878.913 437.0615 878.855 437.247 878.739 437.415 C 878.623 437.57734 878.4724 437.69334 878.287 437.763 C 878.4724 437.83234 878.623 437.94817 878.739 438.1105 C 878.855 438.27884 878.913 438.46434 878.913 438.667 L 878.913 439.5715 C 878.913 439.87884 878.9942 440.14267 879.1565 440.363 C 879.3189 440.57734 879.516 440.6845 879.748 440.6845 L 879.748 441.241 C 879.342 441.241 878.997 441.07867 878.713 440.754 C 878.429 440.42934 878.287 440.03517 878.287 439.5715 L 878.287 438.667 C 878.287 438.47567 878.2204 438.3105 878.087 438.1715 C 877.948 438.03817 877.7829 437.9715 877.5915 437.9715 Z M 882.8085 437.554 C 882.6172 437.554 882.452 437.48734 882.313 437.354 C 882.1797 437.215 882.113 437.04984 882.113 436.8585 L 882.113 435.954 C 882.113 435.49034 881.971 435.09617 881.687 434.7715 C 881.403 434.44684 881.058 434.2845 880.652 434.2845 L 880.652 434.841 C 880.884 434.841 881.0812 434.94834 881.2435 435.163 C 881.4059 435.383 881.487 435.64667 881.487 435.954 L 881.487 436.8585 C 881.487 437.04984 881.5509 437.2295 881.6785 437.3975 C 881.8002 437.55984 881.9654 437.67867 882.174 437.754 C 881.9654 437.82934 881.8002 437.95117 881.6785 438.1195 C 881.5509 438.2875 881.487 438.47 881.487 438.667 L 881.487 439.5715 C 881.487 439.87884 881.4059 440.14267 881.2435 440.363 C 881.0812 440.57734 880.884 440.6845 880.652 440.6845 L 880.652 441.241 C 881.058 441.241 881.403 441.07867 881.687 440.754 C 881.971 440.42934 882.113 440.03517 882.113 439.5715 L 882.113 438.667 C 882.113 438.47567 882.1797 438.3105 882.313 438.1715 C 882.452 438.03817 882.6172 437.9715 882.8085 437.9715 Z M 882.95 430.35 L 882.95 431.6 L 884.2 431.6 Z M 875.2 429.6 L 875.2 443.6 L 885.2 443.6 L 885.2 432.6 L 881.95 432.6 L 881.95 429.6 Z M 874.2 428.6 L 874.8155 428.6 L 882.7 428.6 L 886.2 432.1 L 886.2 444.6 L 874.2 444.6 L 874.2 429.2155 Z" fill="#68bc36"/><path marker-start="url(#a)" stroke="#666a6b" stroke-linecap="square" stroke-linejoin="bevel" stroke-width="2" d="M988.61 450.65 867.5 450.65"/><text transform="translate(529.434 440.1)" fill="#000">
          <tspan font-family="Helvetica" font-size="18" x="0" y="17">datum</tspan>
        </text><path marker-end="url(#b)" stroke="#000" stroke-linecap="round" stroke-linejoin="round" d="M582.021 451.7 596.121 451.7"/><path d="M 738.0546 450.65756 C 699.6453 450.65756 674.2438 450.65756 674.2438 450.65756 C 674.2438 450.65756 694.0133 450.7 649.0133 450.7" marker-start="url(#c)" stroke="#666a6b" stroke-linecap="square" stroke-linejoin="bevel" stroke-width="2"/><path d="M762.2 456.6C762.75 457.15 763.677 457.123 764.261 456.539L774.139 446.661C774.723 446.077 774.75 445.15 774.2 444.6 773.65 444.05 772.723 444.077 772.139 444.661L762.261 454.539C761.677 455.123 761.65 456.05 762.2 456.6ZM767.103 455.697C767.245 455.98 767.321 456.296 767.321 456.625 767.321 457.176 767.11 457.69 766.728 458.072L761.622 463.178C761.239 463.561 760.725 463.772 760.175 463.772 759.624 463.772 759.11 463.561 758.728 463.178L755.622 460.072C755.239 459.69 755.028 459.176 755.028 458.625 755.028 458.075 755.239 457.561 755.622 457.178L760.728 452.072C761.11 451.69 761.624 451.479 762.175 451.479 762.504 451.479 762.82 451.555 763.103 451.697L765.145 449.656C764.274 448.986 763.225 448.65 762.175 448.65 760.925 448.65 759.676 449.124 758.728 450.072L753.622 455.178C751.726 457.074 751.726 460.176 753.622 462.072L756.728 465.178C757.676 466.126 758.925 466.6 760.175 466.6 761.424 466.6 762.674 466.126 763.622 465.178L768.728 460.072C770.472 458.328 770.61 455.563 769.145 453.655ZM782.778 439.128 779.672 436.022C778.724 435.074 777.475 434.6 776.225 434.6 774.976 434.6 773.726 435.074 772.778 436.022L767.672 441.128C765.928 442.872 765.79 445.637 767.255 447.545L769.297 445.503C769.155 445.22 769.079 444.904 769.079 444.575 769.079 444.024 769.29 443.51 769.672 443.128L774.778 438.022C775.161 437.639 775.675 437.428 776.225 437.428 776.776 437.428 777.29 437.639 777.672 438.022L780.778 441.128C781.161 441.51 781.371 442.024 781.371 442.575 781.371 443.125 781.161 443.639 780.778 444.022L775.672 449.128C775.29 449.51 774.776 449.721 774.225 449.721 773.896 449.721 773.58 449.645 773.297 449.503L771.255 451.544C772.126 452.214 773.175 452.549 774.225 452.549 775.475 452.549 776.724 452.075 777.672 451.128L782.778 446.022C784.674 444.126 784.674 441.024 782.778 439.128ZM768.2 517.469C773.964 517.573 778.998 522.032 779.295 527.904L779.33 527.904 779.33 529.296 779.295 529.296C779.05 535.309 773.917 539.442 768.2 539.73 762.053 539.73 757.07 534.747 757.07 528.6 757.07 522.453 762.053 517.47 768.2 517.47ZM768.599 529.296 763.915 537.315C765.239 538.053 766.713 538.264 768.2 538.339 773.175 538.248 777.645 534.4 777.904 529.296ZM762.409 520.812C759.799 522.548 758.613 525.584 758.461 528.6 758.504 531.831 760.042 534.789 762.722 536.599L767.385 528.616ZM768.2 518.861C766.533 518.786 765.059 519.402 763.563 520.034L768.581 527.904 777.904 527.904C777.669 522.68 773.151 519.111 768.2 518.861ZM763.39 513.328 763.93 515.343 765.274 514.983 764.734 512.967 763.389 513.328ZM759.6 515.091 760.643 516.9 761.848 516.204 760.805 514.395ZM756.395 517.779 757.87 519.254 758.854 518.27 757.379 516.795 756.395 517.778ZM753.995 521.202 755.804 522.246 756.5 521.041 754.691 519.998ZM752.565 525.133 754.581 525.672 754.941 524.329 752.926 523.787 752.565 525.131ZM752.2 529.296 754.287 529.296 754.287 527.904 752.2 527.904ZM752.928 533.413 754.942 532.873 754.582 531.529 752.566 532.069 752.926 533.414ZM754.69 537.202 756.499 536.158 755.803 534.953 753.995 535.997ZM757.379 540.404 758.854 538.929 757.87 537.946 756.395 539.421 757.378 540.405ZM760.802 542.805 761.846 540.996 760.641 540.3 759.598 542.109ZM764.733 544.235 765.272 542.219 763.929 541.859 763.387 543.874 764.731 544.235ZM768.896 544.6 768.896 542.513 767.504 542.513 767.504 544.6ZM773.01 543.872 772.47 541.857 771.126 542.217 771.666 544.233 773.011 543.872ZM776.8 542.109 775.757 540.3 774.552 540.996 775.595 542.805ZM780.002 539.423 778.528 537.948 777.545 538.931 779.019 540.406 780.005 539.422ZM782.405 535.998 780.596 534.954 779.9 536.159 781.709 537.202ZM783.835 532.067 781.819 531.528 781.459 532.871 783.474 533.413 783.835 532.069ZM784.2 527.904 782.113 527.904 782.113 529.296 784.2 529.296ZM783.472 523.79 781.457 524.33 781.817 525.674 783.833 525.134 783.472 523.789ZM781.709 520 779.9 521.043 780.596 522.248 782.405 521.205ZM779.023 516.798 777.548 518.272 778.531 519.255 780.006 517.781 779.022 516.795ZM775.598 514.395 774.554 516.204 775.759 516.9 776.802 515.091ZM771.667 512.965 771.128 514.981 772.471 515.341 773.013 513.326 771.669 512.965ZM767.504 512.6 767.504 514.687 768.896 514.687 768.896 512.6ZM768.2 542.513C775.884 542.513 782.113 536.284 782.113 528.6 782.113 520.916 775.884 514.687 768.2 514.687 760.516 514.687 754.287 520.916 754.287 528.6 754.287 536.284 760.516 542.513 768.2 542.513ZM768.2 541.122C761.285 541.122 755.678 535.515 755.678 528.6 755.678 521.685 761.285 516.078 768.2 516.078 775.115 516.078 780.722 521.685 780.722 528.6 780.722 535.515 775.115 541.122 768.2 541.122Z" fill="#3a8eed"/><path marker-start="url(#a)" stroke="#666a6b" stroke-linecap="square" stroke-linejoin="bevel" stroke-width="2" d="M768.513 497.147 768.513 471.2"/><path d="M 845.2 517.469 C 850.964 517.573 855.998 522.032 856.295 527.904 L 856.33 527.904 L 856.33 529.296 L 856.295 529.296 C 856.05 535.309 850.917 539.442 845.2 539.73 C 839.053 539.73 834.07 534.747 834.07 528.6 C 834.07 522.453 839.053 517.47 845.2 517.47 Z M 845.599 529.296 L 840.915 537.315 C 842.239 538.053 843.713 538.264 845.2 538.339 C 850.175 538.248 854.645 534.4 854.904 529.296 Z M 839.409 520.812 C 836.799 522.548 835.613 525.584 835.461 528.6 C 835.504 531.831 837.042 534.789 839.722 536.599 L 844.385 528.616 Z M 845.2 518.861 C 843.533 518.786 842.059 519.402 840.563 520.034 L 845.581 527.904 L 854.904 527.904 C 854.669 522.68 850.151 519.111 845.2 518.861 Z M 840.39 513.328 L 840.93 515.343 L 842.274 514.983 L 841.734 512.967 L 840.389 513.328 Z M 836.6 515.091 L 837.643 516.9 L 838.848 516.204 L 837.805 514.395 Z M 833.395 517.779 L 834.87 519.254 L 835.854 518.27 L 834.379 516.795 L 833.395 517.778 Z M 830.995 521.202 L 832.804 522.246 L 833.5 521.041 L 831.691 519.998 Z M 829.565 525.133 L 831.581 525.672 L 831.941 524.329 L 829.926 523.787 L 829.565 525.131 Z M 829.2 529.296 L 831.287 529.296 L 831.287 527.904 L 829.2 527.904 Z M 829.928 533.413 L 831.942 532.873 L 831.582 531.529 L 829.566 532.069 L 829.926 533.414 Z M 831.69 537.202 L 833.499 536.158 L 832.803 534.953 L 830.995 535.997 Z M 834.379 540.404 L 835.854 538.929 L 834.87 537.946 L 833.395 539.421 L 834.378 540.405 Z M 837.802 542.805 L 838.846 540.996 L 837.641 540.3 L 836.598 542.109 Z M 841.733 544.235 L 842.272 542.219 L 840.929 541.859 L 840.387 543.874 L 841.731 544.235 Z M 845.896 544.6 L 845.896 542.513 L 844.504 542.513 L 844.504 544.6 Z M 850.01 543.872 L 849.47 541.857 L 848.126 542.217 L 848.666 544.233 L 850.011 543.872 Z M 853.8 542.109 L 852.757 540.3 L 851.552 540.996 L 852.595 542.805 Z M 857.002 539.423 L 855.528 537.948 L 854.545 538.931 L 856.019 540.406 L 857.005 539.422 Z M 859.405 535.998 L 857.596 534.954 L 856.9 536.159 L 858.709 537.202 Z M 860.835 532.067 L 858.819 531.528 L 858.459 532.871 L 860.474 533.413 L 860.835 532.069 Z M 861.2 527.904 L 859.113 527.904 L 859.113 529.296 L 861.2 529.296 Z M 860.472 523.79 L 858.457 524.33 L 858.817 525.674 L 860.833 525.134 L 860.472 523.789 Z M 858.709 520 L 856.9 521.043 L 857.596 522.248 L 859.405 521.205 Z M 856.023 516.798 L 854.548 518.272 L 855.531 519.255 L 857.006 517.781 L 856.022 516.795 Z M 852.598 514.395 L 851.554 516.204 L 852.759 516.9 L 853.802 515.091 Z M 848.667 512.965 L 848.128 514.981 L 849.471 515.341 L 850.013 513.326 L 848.669 512.965 Z M 844.504 512.6 L 844.504 514.687 L 845.896 514.687 L 845.896 512.6 Z M 845.2 542.513 C 852.884 542.513 859.113 536.284 859.113 528.6 C 859.113 520.916 852.884 514.687 845.2 514.687 C 837.516 514.687 831.287 520.916 831.287 528.6 C 831.287 536.284 837.516 542.513 845.2 542.513 Z M 845.2 541.122 C 838.285 541.122 832.678 535.515 832.678 528.6 C 832.678 521.685 838.285 516.078 845.2 516.078 C 852.115 516.078 857.722 521.685 857.722 528.6 C 857.722 535.515 852.115 541.122 845.2 541.122 Z" fill="#3a8eed"/><path d="M 797.5915 515.554 C 797.7828 515.554 797.948 515.48734 798.087 515.354 C 798.2203 515.215 798.287 515.04984 798.287 514.8585 L 798.287 513.954 C 798.287 513.49034 798.429 513.0962 798.713 512.7715 C 798.997 512.44684 799.342 512.2845 799.748 512.2845 L 799.748 512.841 C 799.516 512.841 799.3188 512.94834 799.1565 513.163 C 798.9942 513.383 798.913 513.6467 798.913 513.954 L 798.913 514.8585 C 798.913 515.0615 798.855 515.247 798.739 515.415 C 798.623 515.57734 798.4723 515.69334 798.287 515.763 C 798.4723 515.83234 798.623 515.9482 798.739 516.1105 C 798.855 516.27884 798.913 516.46434 798.913 516.667 L 798.913 517.5715 C 798.913 517.87884 798.9942 518.1427 799.1565 518.363 C 799.3188 518.57734 799.516 518.6845 799.748 518.6845 L 799.748 519.241 C 799.342 519.241 798.997 519.0787 798.713 518.754 C 798.429 518.42934 798.287 518.0352 798.287 517.5715 L 798.287 516.667 C 798.287 516.4757 798.2203 516.3105 798.087 516.1715 C 797.948 516.0382 797.7828 515.9715 797.5915 515.9715 Z M 802.8085 515.554 C 802.6172 515.554 802.452 515.48734 802.313 515.354 C 802.1797 515.215 802.113 515.04984 802.113 514.8585 L 802.113 513.954 C 802.113 513.49034 801.971 513.0962 801.687 512.7715 C 801.403 512.44684 801.058 512.2845 800.652 512.2845 L 800.652 512.841 C 800.884 512.841 801.0812 512.94834 801.2435 513.163 C 801.4058 513.383 801.487 513.6467 801.487 513.954 L 801.487 514.8585 C 801.487 515.04984 801.5508 515.2295 801.6785 515.3975 C 801.8002 515.55984 801.9653 515.6787 802.174 515.754 C 801.9653 515.82934 801.8002 515.9512 801.6785 516.1195 C 801.5508 516.2875 801.487 516.47 801.487 516.667 L 801.487 517.5715 C 801.487 517.87884 801.4058 518.1427 801.2435 518.363 C 801.0812 518.57734 800.884 518.6845 800.652 518.6845 L 800.652 519.241 C 801.058 519.241 801.403 519.0787 801.687 518.754 C 801.971 518.42934 802.113 518.0352 802.113 517.5715 L 802.113 516.667 C 802.113 516.4757 802.1797 516.3105 802.313 516.1715 C 802.452 516.0382 802.6172 515.9715 802.8085 515.9715 Z M 802.95 508.35 L 802.95 509.6 L 804.2 509.6 Z M 795.2 507.6 L 795.2 521.6 L 805.2 521.6 L 805.2 510.6 L 801.95 510.6 L 801.95 507.6 Z M 794.2 506.6 L 794.8155 506.6 L 802.7 506.6 L 806.2 510.1 L 806.2 522.6 L 794.2 522.6 L 794.2 507.2155 Z" fill="red"/><path marker-start="url(#a)" stroke="#666a6b" stroke-linecap="square" stroke-linejoin="bevel" stroke-width="2" d="M814.247 529.6 788.3 529.6"/><path d="M 924.2 516.469 C 929.964 516.573 934.998 521.032 935.295 526.904 L 935.33 526.904 L 935.33 528.296 L 935.295 528.296 C 935.05 534.309 929.917 538.442 924.2 538.73 C 918.053 538.73 913.07 533.747 913.07 527.6 C 913.07 521.453 918.053 516.47 924.2 516.47 Z M 924.599 528.296 L 919.915 536.315 C 921.239 537.053 922.713 537.264 924.2 537.339 C 929.175 537.248 933.645 533.4 933.904 528.296 Z M 918.409 519.812 C 915.799 521.548 914.613 524.584 914.461 527.6 C 914.504 530.831 916.042 533.789 918.722 535.599 L 923.385 527.616 Z M 924.2 517.861 C 922.533 517.786 921.059 518.402 919.563 519.034 L 924.581 526.904 L 933.904 526.904 C 933.669 521.68 929.151 518.111 924.2 517.861 Z M 919.39 512.328 L 919.93 514.343 L 921.274 513.983 L 920.734 511.967 L 919.389 512.328 Z M 915.6 514.091 L 916.643 515.9 L 917.848 515.204 L 916.805 513.395 Z M 912.395 516.779 L 913.87 518.254 L 914.854 517.27 L 913.379 515.795 L 912.395 516.778 Z M 909.995 520.202 L 911.804 521.246 L 912.5 520.041 L 910.691 518.998 Z M 908.565 524.133 L 910.581 524.672 L 910.941 523.329 L 908.926 522.787 L 908.565 524.131 Z M 908.2 528.296 L 910.287 528.296 L 910.287 526.904 L 908.2 526.904 Z M 908.928 532.413 L 910.942 531.873 L 910.582 530.529 L 908.566 531.069 L 908.926 532.414 Z M 910.69 536.202 L 912.499 535.158 L 911.803 533.953 L 909.995 534.997 Z M 913.379 539.404 L 914.854 537.929 L 913.87 536.946 L 912.395 538.421 L 913.378 539.405 Z M 916.802 541.805 L 917.846 539.996 L 916.641 539.3 L 915.598 541.109 Z M 920.733 543.235 L 921.272 541.219 L 919.929 540.859 L 919.387 542.874 L 920.731 543.235 Z M 924.896 543.6 L 924.896 541.513 L 923.504 541.513 L 923.504 543.6 Z M 929.01 542.872 L 928.47 540.857 L 927.126 541.217 L 927.666 543.233 L 929.011 542.872 Z M 932.8 541.109 L 931.757 539.3 L 930.552 539.996 L 931.595 541.805 Z M 936.002 538.423 L 934.528 536.948 L 933.545 537.931 L 935.019 539.406 L 936.005 538.422 Z M 938.405 534.998 L 936.596 533.954 L 935.9 535.159 L 937.709 536.202 Z M 939.835 531.067 L 937.819 530.528 L 937.459 531.871 L 939.474 532.413 L 939.835 531.069 Z M 940.2 526.904 L 938.113 526.904 L 938.113 528.296 L 940.2 528.296 Z M 939.472 522.79 L 937.457 523.33 L 937.817 524.674 L 939.833 524.134 L 939.472 522.789 Z M 937.709 519 L 935.9 520.043 L 936.596 521.248 L 938.405 520.205 Z M 935.023 515.798 L 933.548 517.272 L 934.531 518.255 L 936.006 516.781 L 935.022 515.795 Z M 931.598 513.395 L 930.554 515.204 L 931.759 515.9 L 932.802 514.091 Z M 927.667 511.965 L 927.128 513.981 L 928.471 514.341 L 929.013 512.326 L 927.669 511.965 Z M 923.504 511.6 L 923.504 513.687 L 924.896 513.687 L 924.896 511.6 Z M 924.2 541.513 C 931.884 541.513 938.113 535.284 938.113 527.6 C 938.113 519.916 931.884 513.687 924.2 513.687 C 916.516 513.687 910.287 519.916 910.287 527.6 C 910.287 535.284 916.516 541.513 924.2 541.513 Z M 924.2 540.122 C 917.285 540.122 911.678 534.515 911.678 527.6 C 911.678 520.685 917.285 515.078 924.2 515.078 C 931.115 515.078 936.722 520.685 936.722 527.6 C 936.722 534.515 931.115 540.122 924.2 540.122 Z" fill="#3a8eed"/><path d="M 877.5915 514.554 C 877.7829 514.554 877.948 514.48734 878.087 514.354 C 878.2204 514.215 878.287 514.04984 878.287 513.8585 L 878.287 512.954 C 878.287 512.49034 878.429 512.0962 878.713 511.7715 C 878.997 511.44684 879.342 511.2845 879.748 511.2845 L 879.748 511.841 C 879.516 511.841 879.3189 511.94834 879.1565 512.163 C 878.9942 512.383 878.913 512.6467 878.913 512.954 L 878.913 513.8585 C 878.913 514.0615 878.855 514.247 878.739 514.415 C 878.623 514.57734 878.4724 514.69334 878.287 514.763 C 878.4724 514.83234 878.623 514.9482 878.739 515.1105 C 878.855 515.27884 878.913 515.46434 878.913 515.667 L 878.913 516.5715 C 878.913 516.87884 878.9942 517.1427 879.1565 517.363 C 879.3189 517.57734 879.516 517.6845 879.748 517.6845 L 879.748 518.241 C 879.342 518.241 878.997 518.0787 878.713 517.754 C 878.429 517.42934 878.287 517.0352 878.287 516.5715 L 878.287 515.667 C 878.287 515.4757 878.2204 515.3105 878.087 515.1715 C 877.948 515.0382 877.7829 514.9715 877.5915 514.9715 Z M 882.8085 514.554 C 882.6172 514.554 882.452 514.48734 882.313 514.354 C 882.1797 514.215 882.113 514.04984 882.113 513.8585 L 882.113 512.954 C 882.113 512.49034 881.971 512.0962 881.687 511.7715 C 881.403 511.44684 881.058 511.2845 880.652 511.2845 L 880.652 511.841 C 880.884 511.841 881.0812 511.94834 881.2435 512.163 C 881.4059 512.383 881.487 512.6467 881.487 512.954 L 881.487 513.8585 C 881.487 514.04984 881.5509 514.2295 881.6785 514.3975 C 881.8002 514.55984 881.9654 514.6787 882.174 514.754 C 881.9654 514.82934 881.8002 514.9512 881.6785 515.1195 C 881.5509 515.2875 881.487 515.47 881.487 515.667 L 881.487 516.5715 C 881.487 516.87884 881.4059 517.1427 881.2435 517.363 C 881.0812 517.57734 880.884 517.6845 880.652 517.6845 L 880.652 518.241 C 881.058 518.241 881.403 518.0787 881.687 517.754 C 881.971 517.42934 882.113 517.0352 882.113 516.5715 L 882.113 515.667 C 882.113 515.4757 882.1797 515.3105 882.313 515.1715 C 882.452 515.0382 882.6172 514.9715 882.8085 514.9715 Z M 882.95 507.35 L 882.95 508.6 L 884.2 508.6 Z M 875.2 506.6 L 875.2 520.6 L 885.2 520.6 L 885.2 509.6 L 881.95 509.6 L 881.95 506.6 Z M 874.2 505.6 L 874.8155 505.6 L 882.7 505.6 L 886.2 509.1 L 886.2 521.6 L 874.2 521.6 L 874.2 506.2155 Z" fill="#9437ff"/><path marker-start="url(#a)" stroke="#666a6b" stroke-linecap="square" stroke-linejoin="bevel" stroke-width="2" d="M893.447 528.6 867.5 528.6"/><path d="M 958.5915 515.554 C 958.7829 515.554 958.948 515.48734 959.087 515.354 C 959.2204 515.215 959.287 515.04984 959.287 514.8585 L 959.287 513.954 C 959.287 513.49034 959.429 513.0962 959.713 512.7715 C 959.997 512.44684 960.342 512.2845 960.748 512.2845 L 960.748 512.841 C 960.516 512.841 960.3189 512.94834 960.1565 513.163 C 959.9942 513.383 959.913 513.6467 959.913 513.954 L 959.913 514.8585 C 959.913 515.0615 959.855 515.247 959.739 515.415 C 959.623 515.57734 959.4724 515.69334 959.287 515.763 C 959.4724 515.83234 959.623 515.9482 959.739 516.1105 C 959.855 516.27884 959.913 516.46434 959.913 516.667 L 959.913 517.5715 C 959.913 517.87884 959.9942 518.1427 960.1565 518.363 C 960.3189 518.57734 960.516 518.6845 960.748 518.6845 L 960.748 519.241 C 960.342 519.241 959.997 519.0787 959.713 518.754 C 959.429 518.42934 959.287 518.0352 959.287 517.5715 L 959.287 516.667 C 959.287 516.4757 959.2204 516.3105 959.087 516.1715 C 958.948 516.0382 958.7829 515.9715 958.5915 515.9715 Z M 963.8085 515.554 C 963.6172 515.554 963.452 515.48734 963.313 515.354 C 963.1797 515.215 963.113 515.04984 963.113 514.8585 L 963.113 513.954 C 963.113 513.49034 962.971 513.0962 962.687 512.7715 C 962.403 512.44684 962.058 512.2845 961.652 512.2845 L 961.652 512.841 C 961.884 512.841 962.0812 512.94834 962.2435 513.163 C 962.4059 513.383 962.487 513.6467 962.487 513.954 L 962.487 514.8585 C 962.487 515.04984 962.5509 515.2295 962.6785 515.3975 C 962.8002 515.55984 962.9654 515.6787 963.174 515.754 C 962.9654 515.82934 962.8002 515.9512 962.6785 516.1195 C 962.5509 516.2875 962.487 516.47 962.487 516.667 L 962.487 517.5715 C 962.487 517.87884 962.4059 518.1427 962.2435 518.363 C 962.0812 518.57734 961.884 518.6845 961.652 518.6845 L 961.652 519.241 C 962.058 519.241 962.403 519.0787 962.687 518.754 C 962.971 518.42934 963.113 518.0352 963.113 517.5715 L 963.113 516.667 C 963.113 516.4757 963.1797 516.3105 963.313 516.1715 C 963.452 516.0382 963.6172 515.9715 963.8085 515.9715 Z M 963.95 508.35 L 963.95 509.6 L 965.2 509.6 Z M 956.2 507.6 L 956.2 521.6 L 966.2 521.6 L 966.2 510.6 L 962.95 510.6 L 962.95 507.6 Z M 955.2 506.6 L 955.8155 506.6 L 963.7 506.6 L 967.2 510.1 L 967.2 522.6 L 955.2 522.6 L 955.2 507.2155 Z" fill="#00f"/><text transform="translate(916.8 435.878)" fill="#235e00">
          <tspan font-family="Helvetica" font-size="12" x="1.269" y="11">continues…</tspan>
        </text><path d="M 814.2482 450.43085 L 800.75 450.65 L 800.2 496.6 L 978.2 496.6 L 978.2 528.6 L 945.2 528.6" marker-start="url(#a)" stroke="#666a6b" stroke-linecap="square" stroke-linejoin="bevel" stroke-width="2"/><text transform="translate(647.04 530.2)" fill="#000">
          <tspan font-family="Helvetica" font-size="18" x="3.104" y="17">Filter Chain</tspan>
        </text><path stroke="#666" stroke-width="2" d="M642.6 552.737 948.6 552.737"/><path stroke="#666" d="M642.6 547.737 642.6 553.737M948.6 547.737 948.6 553.737"/></g></svg>
