<?xml version="1.0" encoding="UTF-8"?>
<svg width="92" height="60" version="1.1" xml:space="preserve" xmlns="http://www.w3.org/2000/svg"><g><path d="m77.451 50.934c-17.298 9.987-45.432 9.938-62.838-0.113-17.407-10.05-17.495-26.292-0.198-36.278 17.298-9.987 45.432-9.938 62.838 0.112 17.407 10.051 17.495 26.292 0.198 36.279z" fill="#f0f9ff"/><path d="m77.451 50.934c-17.298 9.987-45.432 9.938-62.838-0.113-17.407-10.05-17.495-26.292-0.198-36.278 17.298-9.987 45.432-9.938 62.838 0.112 17.407 10.051 17.495 26.292 0.198 36.279z" fill="none" stroke="#000" stroke-linecap="round" stroke-linejoin="round"/><path d="m8.3712 23.706v6.945l37.396 21.439v-6.946z" fill="#f0f9ff"/><path d="m8.3712 23.706v6.945l37.396 21.439v-6.946z" fill="none" stroke="#000" stroke-linecap="round" stroke-linejoin="round"/><path d="m82.962 23.515v6.946l-37.195 21.63v-6.946z" fill="#123453"/><path d="m82.962 23.515v6.946l-37.195 21.63v-6.946z" fill="none" stroke="#000" stroke-linecap="round" stroke-linejoin="round"/><path d="m8.3712 23.706 37.329-21.706 37.263 21.516-37.196 21.628z" fill="#bde3ff"/><path d="m8.3712 23.706 37.329-21.706 37.263 21.516-37.196 21.628zm71.168 5.187 5.44 3.143m-9.831-0.607 5.441 3.142m-9.833-0.606 5.441 3.142m-9.832-0.606 5.441 3.141m-9.833-0.606 5.441 3.142m-9.833-0.607 5.442 3.142m-9.832-0.607 5.441 3.143m-9.833-0.608 5.441 3.142m-42.38-20.576-5.442 3.142m9.832-0.607-5.44 3.143m9.832-0.608-5.441 3.143m9.833-0.607-5.441 3.142m9.832-0.607-5.441 3.142m9.833-0.606-5.441 3.142m9.832-0.606-5.441 3.142m9.832-0.607-5.44 3.142" fill="none" stroke="#000" stroke-linecap="round" stroke-linejoin="round"/><path d="m35.325 16.651 0.942-0.543c0.153 0.303 0.453 0.663 1.02 0.99 0.512 0.295 1.173 0.481 1.63 0.217 0.361-0.209 0.159-0.507-0.155-0.846l-0.271-0.29c-0.599-0.644-0.459-1.194 0.153-1.548 0.895-0.517 2.303-0.356 3.436 0.298 0.395 0.228 0.838 0.562 1.012 0.805l-0.88 0.508c-0.188-0.273-0.577-0.594-0.977-0.823-0.561-0.323-1.194-0.478-1.556-0.269-0.285 0.165-0.214 0.442 0.141 0.82l0.271 0.291c0.55 0.593 0.742 1.129-0.11 1.621-0.859 0.496-2.357 0.387-3.49-0.268-0.651-0.374-0.963-0.689-1.166-0.963zm6.542 4.068c-1.493-0.862-1.423-2.01 0.111-2.897 1.533-0.886 3.516-0.921 5.01-0.06 1.492 0.862 1.43 2.007-0.104 2.893-1.535 0.887-3.524 0.926-5.017 0.064zm0.777-0.449c0.78 0.451 2.058 0.464 3.217-0.205 1.158-0.669 1.13-1.402 0.35-1.853-0.78-0.451-2.052-0.468-3.211 0.201-1.159 0.669-1.135 1.407-0.356 1.857zm4.791 2.649 2.023 1.169-0.791 0.456-3.014-1.74 4.943-2.854 0.989 0.571zm1.896 2.007 6.811-1.776 0.993 0.574-3.069 3.937-1.072-0.619 0.826-0.995-1.756-1.015-1.724 0.478zm5.002 0.497 1.077-1.309-2.265 0.621zm5.651-0.053 1.541 0.89c1.535 0.886 1.632 1.532 0.678 2.083-0.621 0.357-1.491 0.454-2.499 0.117l-0.717 2.042-1.093-0.63 0.698-1.929-0.545-0.313-2.018 1.165-0.989-0.572zm0.198 1.026-1.344 0.776 0.676 0.39c0.63 0.363 1.153 0.493 1.673 0.193 0.518-0.299 0.302-0.604-0.377-0.996zm-28.579-2.264 1.766-3.334-3.771 2.176-0.933-0.539 4.943-2.853 1.285 0.741-1.766 3.334 3.771-2.177 0.933 0.538-4.943 2.855zm4.894 2.927c-1.492-0.862-1.424-2.01 0.11-2.896 1.534-0.886 3.519-0.922 5.011-0.061 1.492 0.862 1.431 2.007-0.104 2.894-1.532 0.886-3.523 0.925-5.017 0.063zm0.778-0.449c0.78 0.451 2.059 0.464 3.218-0.205 1.159-0.669 1.13-1.403 0.349-1.854-0.779-0.451-2.052-0.467-3.211 0.202-1.159 0.669-1.136 1.408-0.356 1.857zm9.328 0.474c1.591 0.918 2.385 1.967 0.428 3.096-1.964 1.134-3.78 0.676-5.37-0.242l-1.375-0.794 4.942-2.854zm-0.721 0.497-0.456-0.265-3.362 1.942 0.457 0.262c0.911 0.527 2.021 0.917 3.487 0.07 1.459-0.842 0.786-1.484-0.126-2.009zm4.876 1.9 3.233 1.867-0.791 0.457-2.245-1.296-1.228 0.708 2.101 1.213-0.791 0.456-2.101-1.212-1.344 0.775 2.246 1.297-0.791 0.457-3.234-1.867z" fill="#003657"/></g></svg>
